<svg width="78" height="81" viewBox="0 0 78 81" fill="none" xmlns="http://www.w3.org/2000/svg">
<ellipse cx="38.5673" cy="40.5553" rx="38.5673" ry="40.0737" fill="#FF7F5C"/>
<path d="M52.232 34.6015V31.8536H48.4011C48.0981 31.1898 47.5815 30.6531 46.9428 30.3383V26.3577H44.2981V30.0216H39.8905V26.3577H37.2458V30.0216H32.8381V26.3577H30.1935V30.3329C29.5513 30.6496 29.0348 31.1863 28.73 31.8536H24.9043V34.6015H28.4305V39.1813H24.9043V41.9292H28.4305V46.5091H24.9043V49.257H28.73C29.0348 49.9243 29.5513 50.461 30.1935 50.7776V54.7528H32.8381V51.0889H37.2458V54.7528H39.8905V51.0889H44.2981V54.7528H46.9428V50.7723C47.5815 50.4574 48.0981 49.9207 48.4011 49.257H52.232V46.5091H48.7058V41.9292H52.232V39.1813H48.7058V34.6015H52.232ZM46.0612 39.1813V47.883C46.0612 48.0047 46.0147 48.121 45.9321 48.2068C45.8494 48.2927 45.7375 48.341 45.6205 48.341H31.5158C31.2731 48.341 31.0751 48.1353 31.0751 47.883V33.2275C31.0751 32.9753 31.2731 32.7695 31.5158 32.7695H45.6205C45.7375 32.7695 45.8494 32.8178 45.9321 32.9037C46.0147 32.9896 46.0612 33.1059 46.0612 33.2275V39.1813Z" fill="white"/>
</svg>
