<svg width="22" height="26" viewBox="0 0 22 26" fill="none" xmlns="http://www.w3.org/2000/svg">
<path d="M18.1545 24.73C16.7661 26.0758 15.2503 25.8633 13.7911 25.2258C12.247 24.5742 10.8303 24.5458 9.20115 25.2258C7.16115 26.1042 6.08448 25.8492 4.86615 24.73C-2.04719 17.6042 -1.02719 6.7525 6.82115 6.35583C8.73365 6.455 10.0653 7.40417 11.1845 7.48917C12.8561 7.14917 14.457 6.17167 16.242 6.29917C18.3811 6.46917 19.9961 7.31917 21.0586 8.84917C16.6386 11.4983 17.687 17.3208 21.7386 18.95C20.9311 21.075 19.8828 23.1858 18.1403 24.7442L18.1545 24.73ZM11.0428 6.27083C10.8303 3.11167 13.3945 0.505 16.3411 0.25C16.752 3.905 13.0261 6.625 11.0428 6.27083Z" fill="white"/>
</svg>
