<svg width="78" height="81" viewBox="0 0 78 81" fill="none" xmlns="http://www.w3.org/2000/svg">
<ellipse cx="38.5673" cy="40.9115" rx="38.5673" ry="40.0737" fill="#00E1F0"/>
<path fill-rule="evenodd" clip-rule="evenodd" d="M32.6028 21.8002C32.7094 21.804 32.8161 21.8247 32.9155 21.866C33.015 21.9054 33.1072 21.9655 33.1885 22.0369C33.2699 22.1102 33.3367 22.1985 33.3892 22.2943C33.4416 22.3919 33.476 22.4971 33.494 22.608C33.5103 22.7169 33.5103 22.8296 33.4904 22.9386C33.4705 23.0475 33.4326 23.1527 33.3783 23.2485C33.2699 23.4401 33.0963 23.5904 32.8938 23.6655C27.7432 25.6811 24.075 30.849 24.075 36.9182C24.075 41.0302 25.7599 44.7215 28.4482 47.3116C28.5585 47.4187 28.6434 47.5539 28.694 47.7023C28.7429 47.8507 28.7573 48.0104 28.7338 48.1663L27.5587 55.9864L41.9909 59.9011L42.6833 54.3897C42.6996 54.2582 42.743 54.1286 42.8099 54.014C42.8767 53.8994 42.9671 53.7999 43.072 53.7247C43.1768 53.6477 43.298 53.5951 43.4245 53.5707C43.5511 53.5444 43.6812 53.5482 43.8078 53.5763L48.1231 54.5982L48.8625 49.9058C48.8806 49.795 48.9168 49.6861 48.971 49.5884C49.0252 49.4907 49.0939 49.4024 49.1771 49.3292C49.2602 49.2559 49.3561 49.1977 49.4573 49.1601C49.5585 49.1206 49.6688 49.1019 49.7773 49.1019H52.8488L51.1115 40.5287C51.097 40.4535 51.0898 40.3746 51.0916 40.2976L51.2507 35.3705C50.7065 30.1692 47.4506 25.8148 42.9835 23.861C42.8697 23.814 42.7666 23.7426 42.6798 23.6525C42.5931 23.5623 42.5225 23.4552 42.4755 23.3388C42.4285 23.2223 42.405 23.0946 42.405 22.9668C42.405 22.8391 42.4303 22.7132 42.4773 22.5949C42.5244 22.4784 42.5949 22.3714 42.6816 22.2812C42.7684 22.1929 42.8733 22.1215 42.9872 22.0746C43.1011 22.0276 43.224 22.0051 43.3451 22.0069C43.468 22.0088 43.5892 22.037 43.7013 22.0877C48.7977 24.3174 52.502 29.2952 53.0986 35.2332C53.1022 35.2764 53.104 35.3215 53.1022 35.3647L52.9431 40.2447L54.8919 49.8643C54.9209 50.0033 54.9172 50.1498 54.8865 50.2888C54.854 50.4278 54.7925 50.5574 54.7057 50.6683C54.619 50.7791 54.5087 50.8693 54.3857 50.9313C54.261 50.9932 54.1254 51.0252 53.988 51.0252H50.5622L49.792 55.9225C49.7721 56.0521 49.7251 56.1761 49.6582 56.2869C49.5895 56.3978 49.501 56.4917 49.3961 56.5649C49.2912 56.6382 49.1719 56.6889 49.049 56.7133C48.9261 56.7377 48.7959 56.734 48.673 56.7058L44.3884 55.6914L43.6924 61.2365C43.6761 61.3718 43.6309 61.5014 43.5622 61.6178C43.4935 61.7343 43.4013 61.8339 43.2928 61.909C43.1844 61.9841 43.0596 62.0367 42.9313 62.0593C42.8029 62.0818 42.6691 62.0762 42.5426 62.0424L26.2846 57.6318C26.1743 57.6017 26.0713 57.551 25.9791 57.4815C25.8869 57.412 25.8073 57.3256 25.7459 57.2279C25.6844 57.1302 25.6392 57.0194 25.6157 56.9029C25.5922 56.7883 25.5886 56.6681 25.6067 56.5516L26.8378 48.367C23.9977 45.4498 22.2314 41.3942 22.2314 36.9215C22.2314 30.0463 26.3931 24.1612 32.2489 21.8693C32.3646 21.8223 32.4876 21.7998 32.6105 21.8035L32.6028 21.8002Z" fill="white"/>
<path fill-rule="evenodd" clip-rule="evenodd" d="M40.3508 19.7526C40.472 19.7526 40.5931 19.777 40.7052 19.8259C40.8172 19.8747 40.9203 19.9461 41.0053 20.0344C41.0902 20.1227 41.1589 20.2297 41.2059 20.3462C41.2529 20.4627 41.2764 20.5885 41.2764 20.7144V34.8909C43.1729 35.9954 44.46 38.103 44.46 40.5114C44.46 42.544 43.5453 44.3623 42.1207 45.5439L44.2793 49.4267C44.3425 49.5356 44.3823 49.6577 44.4004 49.7836C44.4167 49.9094 44.4112 50.039 44.3787 50.1611C44.348 50.2832 44.2937 50.3997 44.2196 50.5011C44.1455 50.6026 44.0515 50.6871 43.9466 50.751C43.8418 50.8148 43.7225 50.8562 43.6013 50.8712C43.4802 50.8881 43.3555 50.8787 43.238 50.8449C43.1204 50.8111 43.0084 50.7528 42.9125 50.6758C42.8167 50.5969 42.7354 50.4993 42.6757 50.3884L40.5189 46.5094C39.8175 46.7968 39.0546 46.9546 38.2573 46.9546C34.8423 46.9546 32.0566 44.0599 32.0566 40.5117C32.0566 38.1035 33.3438 35.9941 35.2402 34.8911V20.7147C35.2402 20.5888 35.2638 20.463 35.3108 20.3465C35.3578 20.23 35.4265 20.123 35.5114 20.0347C35.5964 19.9464 35.6994 19.875 35.8115 19.8262C35.9236 19.7773 36.0447 19.7529 36.1659 19.7529L40.3508 19.7526ZM39.4252 21.6762H37.0931V34.1888C37.4709 34.1136 37.8614 34.0742 38.2591 34.0742C38.6568 34.0742 39.0473 34.1136 39.4252 34.1888L39.4252 21.6762ZM38.2592 35.9974C35.8439 35.9974 33.9095 38.0073 33.9095 40.5132C33.9095 43.0228 35.8439 45.0327 38.2592 45.0327C40.669 45.0327 42.6088 43.0228 42.6088 40.5132C42.6088 38.0092 40.669 35.9974 38.2592 35.9974Z" fill="white"/>
</svg>
