<svg width="21" height="23" viewBox="0 0 21 23" fill="none" xmlns="http://www.w3.org/2000/svg">
<path d="M0 1.38788V21.2269C0.000132911 21.27 0.0129705 21.312 0.0369032 21.3478C0.0608358 21.3836 0.0947979 21.4115 0.134531 21.428C0.174264 21.4446 0.217999 21.449 0.260252 21.4408C0.302505 21.4326 0.341395 21.4121 0.372045 21.3819L10.702 11.3079L0.372045 1.2329C0.341395 1.20268 0.302505 1.18218 0.260252 1.17398C0.217999 1.16577 0.174264 1.17022 0.134531 1.18677C0.0947979 1.20332 0.0608358 1.23124 0.0369032 1.26701C0.0129705 1.30279 0.000132911 1.34483 0 1.38788ZM15.0333 7.16846L2.08083 0.0324584L2.07275 0.0279151C1.84963 -0.0932395 1.63761 0.208637 1.82035 0.384312L11.9736 10.0928L15.0333 7.16846ZM1.82136 22.2315C1.63761 22.4072 1.84963 22.7091 2.07376 22.5879L2.08184 22.5834L15.0333 15.4474L11.9736 12.522L1.82136 22.2315ZM20.2621 10.0459L16.6451 8.0539L13.2442 11.3079L16.6451 14.5604L20.2621 12.5699C21.246 12.0263 21.246 10.5896 20.2621 10.0459Z" fill="white"/>
</svg>
