<svg width="78" height="82" viewBox="0 0 78 82" fill="none" xmlns="http://www.w3.org/2000/svg">
<ellipse cx="38.5673" cy="40.9508" rx="38.5673" ry="40.0737" fill="#3734A9"/>
<path d="M29.7523 49.5147C29.9606 49.7312 30.076 50.0263 30.0743 50.3323C30.0726 50.6382 29.952 50.9298 29.742 51.1445C29.5302 51.3574 29.2461 51.4737 28.9517 51.4683C28.6573 51.4629 28.3766 51.3359 28.1752 51.1141C26.6273 49.47 25.4565 47.4824 24.7541 45.3018C24.6594 45.012 24.6783 44.6953 24.8109 44.4216C24.9417 44.1461 25.1724 43.9385 25.4531 43.8437C25.732 43.7471 26.0385 43.7722 26.3002 43.9117C26.5619 44.053 26.7599 44.2946 26.8477 44.588C27.4452 46.436 28.4386 48.1212 29.7523 49.515L29.7523 49.5147ZM51.6806 43.8398C51.4034 43.7432 51.1003 43.7664 50.8386 43.9024C50.5769 44.0402 50.3789 44.2799 50.2877 44.5679C49.6919 46.4249 48.6985 48.1155 47.3831 49.5146C47.1747 49.7311 47.0594 50.0263 47.0611 50.3322C47.0628 50.6381 47.1833 50.9297 47.3934 51.1444C47.6052 51.3573 47.8893 51.4736 48.1837 51.4682C48.4781 51.4628 48.7588 51.3358 48.9602 51.114C50.5098 49.4699 51.6789 47.4823 52.3813 45.3017C52.4777 45.0119 52.4571 44.6934 52.3262 44.4179C52.1937 44.1442 51.9612 43.9349 51.6806 43.8401L51.6806 43.8398ZM35.8129 28.086C37.6414 27.6531 39.5387 27.6531 41.3675 28.086C41.655 28.1665 41.9632 28.12 42.218 27.9608C42.4745 27.7998 42.6571 27.5386 42.7242 27.2363C42.7913 26.9339 42.7362 26.6155 42.5744 26.356C42.4108 26.0949 42.1543 25.9142 41.8599 25.8551C39.7094 25.3452 37.4746 25.3452 35.3241 25.8551C34.7869 26.0376 34.4701 26.6136 34.5907 27.1879C34.7112 27.7622 35.2294 28.1469 35.7907 28.0806L35.8129 28.086ZM25.3102 21.431C27.8481 21.4185 29.9176 23.5439 29.9383 26.1808C29.9383 28.8375 27.8653 30.9896 25.3102 30.9896C22.7534 30.9896 20.6822 28.8375 20.6822 26.1808C20.7011 23.5438 22.7707 21.4187 25.3102 21.431ZM25.3102 23.721C24.3581 23.746 23.5127 24.3596 23.1632 25.2809C22.8154 26.2005 23.0323 27.2489 23.7124 27.9394C24.3943 28.6317 25.4084 28.8303 26.2847 28.4475C27.1628 28.0629 27.7327 27.1701 27.7345 26.1808C27.7172 24.8069 26.6325 23.7067 25.3102 23.721ZM26.4208 36.0398L28.5575 33.8519H29.2272C29.7506 33.8448 30.2551 34.0541 30.6287 34.4315C31.0041 34.8108 31.2176 35.3278 31.2245 35.8717V38.4962C31.2245 39.1277 31.7186 39.6411 32.3264 39.6411C32.9359 39.6411 33.4283 39.1277 33.4283 38.4962V35.8717C33.4111 33.478 31.5327 31.5494 29.2273 31.5619H28.1081C27.8188 31.5619 27.5434 31.6818 27.3368 31.8911L25.3085 33.961L23.2803 31.8911H23.282C23.0771 31.6818 22.7999 31.5619 22.5106 31.5619H21.3777C19.0792 31.5566 17.2077 33.4833 17.1904 35.8717V38.4962C17.1904 39.1277 17.6846 39.6411 18.2924 39.6411C18.9001 39.6411 19.3943 39.1277 19.3943 38.4962V35.8717C19.408 34.7464 20.2948 33.8447 21.3777 33.8519H22.0475L24.1894 36.0416C24.8109 36.6713 25.8027 36.6695 26.4208 36.0362L26.4208 36.0398ZM56.4534 26.1753C56.4534 28.832 54.3822 30.9841 51.8254 30.9841C49.2703 30.9841 47.1973 28.832 47.1973 26.1753C47.1973 23.5204 49.2703 21.3665 51.8254 21.3665C54.3822 21.3665 56.4534 23.5204 56.4534 26.1753ZM54.2496 26.1753C54.2737 25.152 53.6986 24.2164 52.7947 23.8066C51.8908 23.3988 50.8388 23.5991 50.1329 24.3147C49.4286 25.0303 49.21 26.1181 49.5819 27.0662C49.9538 28.0144 50.8405 28.6352 51.8253 28.6352C53.1493 28.6513 54.234 27.551 54.2496 26.1753H54.2496ZM55.7579 31.5621H54.625C54.3357 31.5621 54.0585 31.682 53.8536 31.8913L51.8254 33.9612L49.7971 31.8913H49.7988C49.5922 31.682 49.3167 31.5621 49.0275 31.5621H47.9083C45.6029 31.5496 43.7245 33.4781 43.7073 35.8719V38.4963C43.7073 39.1279 44.1997 39.6413 44.8092 39.6413C45.417 39.6413 45.9111 39.1279 45.9111 38.4963V35.8719C45.918 35.328 46.1315 34.811 46.5069 34.4317C46.8805 34.0542 47.385 33.845 47.9084 33.8521H48.5781L50.72 36.0365C51.3364 36.6501 52.3075 36.6501 52.9239 36.0365L55.0743 33.8521H55.7579C56.2813 33.8449 56.784 34.0543 57.1594 34.4317C57.533 34.811 57.7482 35.328 57.7551 35.8719V38.4963C57.7551 39.1279 58.2476 39.6413 58.857 39.6413C59.4648 39.6413 59.959 39.1279 59.959 38.4963V35.8719C59.9418 33.4781 58.0616 31.5496 55.7579 31.5621H55.7579ZM33.9398 49.2999C33.9174 47.3499 35.0297 45.577 36.7566 44.8148C38.4835 44.0509 40.4842 44.4481 41.8201 45.8185C43.1545 47.1889 43.5608 49.2623 42.848 51.0656C42.1352 52.8707 40.4444 54.0497 38.5677 54.0497C36.0299 54.0622 33.9586 51.9368 33.9397 49.2999H33.9398ZM36.1436 49.2999C36.1178 50.3232 36.6929 51.2624 37.5968 51.6721C38.5007 52.0818 39.5527 51.8832 40.2587 51.1676C40.9646 50.452 41.185 49.3643 40.8131 48.4161C40.4412 47.4662 39.5544 46.8454 38.5679 46.8454C37.2473 46.8293 36.1626 47.9277 36.1436 49.2999V49.2999ZM42.4867 54.6849H41.3676C41.0783 54.6867 40.8011 54.8047 40.5962 55.0159L38.568 57.0857L36.5398 55.0159C36.3349 54.8047 36.0576 54.6867 35.7684 54.6849H34.6493C32.3455 54.6724 30.4654 56.6009 30.4482 58.9946V61.6191C30.4482 62.2524 30.9423 62.7641 31.5501 62.7641C32.1596 62.7641 32.652 62.2524 32.652 61.6191V58.9946C32.6606 58.4525 32.8741 57.9337 33.2478 57.5563C33.6231 57.177 34.1276 56.9677 34.6493 56.9749H35.319L37.4609 59.1646C38.0773 59.7782 39.0501 59.7782 39.6648 59.1646L41.8066 56.9802H42.4781C42.9998 56.9731 43.5043 57.1824 43.8779 57.5598C44.2532 57.9391 44.4667 58.4561 44.4736 59V61.6245C44.4736 62.256 44.9678 62.7694 45.5756 62.7694C46.1851 62.7694 46.6775 62.256 46.6775 61.6245V58.9946C46.662 56.6045 44.787 54.6777 42.4867 54.6849V54.6849Z" fill="white"/>
</svg>
