<svg width="63" height="20" viewBox="0 0 63 20" fill="none" xmlns="http://www.w3.org/2000/svg">
<path d="M6.22002 17.0001C6.22002 18.0799 7.09124 18.9338 8.19338 18.9338C9.29552 18.9338 10.1667 18.0799 10.1667 17.0001V4.77001H13.9598C14.9593 4.77001 15.7796 3.96649 15.7796 2.98687C15.7796 2.0075 14.9596 1.20398 13.9598 1.20398H2.42692C1.42744 1.20398 0.607422 2.0075 0.607422 2.98687C0.607422 3.96625 1.42744 4.77001 2.42692 4.77001H6.22002V17.0001ZM19.4442 19.0341C21.3407 19.0341 22.6477 18.3561 23.596 17.3265V17.3516C23.596 18.1551 24.3392 18.9338 25.4669 18.9338C26.5176 18.9338 27.3635 18.1303 27.3635 17.1005V10.9729C27.3635 9.16465 26.9021 7.68305 25.8771 6.67859C24.9032 5.7243 23.3656 5.1719 21.2383 5.1719C19.4186 5.1719 18.086 5.42301 16.8559 5.87507C16.2409 6.1011 15.8052 6.67859 15.8052 7.35667C15.8052 8.2357 16.5228 8.91379 17.4199 8.91379C17.5993 8.91379 17.7532 8.8887 17.9836 8.81344C18.7268 8.58741 19.5983 8.43664 20.6746 8.43664C22.6223 8.43664 23.6218 9.31567 23.6218 10.8976V11.1236C22.6479 10.7973 21.6485 10.5712 20.2645 10.5712C17.0095 10.5712 14.7287 11.9274 14.7287 14.8655V14.9157C14.7287 17.5776 16.8559 19.0341 19.4444 19.0341H19.4442ZM20.6231 16.3973C19.3674 16.3973 18.4959 15.7947 18.4959 14.7649V14.7148C18.4959 13.5094 19.521 12.8564 21.1869 12.8564C22.1351 12.8564 23.0064 13.0573 23.6728 13.3586V14.0367C23.6728 15.4179 22.4426 16.3973 20.6231 16.3973ZM30.7208 17.0252C30.7208 18.0799 31.5923 18.9338 32.6686 18.9338C33.7449 18.9338 34.6164 18.0799 34.6164 17.0252V13.4592C34.6164 10.7471 35.7185 9.26525 37.6919 8.81344C38.4863 8.63758 39.1527 8.03501 39.1527 7.0303C39.1527 5.95058 38.4607 5.17215 37.2561 5.17215C36.1028 5.17215 35.1804 6.37755 34.6164 7.6833V7.08072C34.6164 6.02609 33.7449 5.17215 32.6686 5.17215C31.5923 5.17215 30.7208 6.02584 30.7208 7.08072V17.0255V17.0252Z" fill="white"/>
<path d="M50.239 0.921143C52.7718 0.921143 55.0671 1.92809 56.7302 3.55574C57.6561 4.46209 58.3857 5.5592 58.8513 6.7805C58.9329 6.99386 58.8911 7.2179 58.7377 7.38953C58.5846 7.56092 58.3636 7.63121 58.137 7.58054L54.9142 6.85899L54.8965 6.83315V6.83291C54.6965 6.54379 54.4691 6.27454 54.2179 6.02864C53.2012 5.03412 51.7949 4.41862 50.239 4.41862C48.6834 4.41862 47.2768 5.03412 46.2603 6.02864C45.2469 7.02019 44.6203 8.39474 44.6203 9.91608C44.6203 11.4374 45.2472 12.812 46.2603 13.8035C47.2489 14.7707 48.6066 15.3793 50.111 15.4121C50.2278 15.4145 50.3275 15.4441 50.4261 15.5049L53.3819 17.3323C53.5867 17.459 53.6927 17.6756 53.6651 17.9115C53.6374 18.1475 53.4843 18.335 53.2554 18.413C52.3105 18.7352 51.2953 18.9108 50.239 18.9108C47.7062 18.9108 45.4112 17.9038 43.7481 16.2762C42.0817 14.6453 41.0508 12.3962 41.0508 9.91608C41.0508 7.43598 42.0817 5.18712 43.7481 3.55599C45.4114 1.92834 47.7067 0.921391 50.2393 0.921391L50.239 0.921143Z" fill="white"/>
<path d="M50.1856 11.3843C49.2698 10.8373 48.9798 9.6662 49.5377 8.76879C50.0959 7.87138 51.291 7.58723 52.2069 8.13392L61.5588 13.7374C62.4747 14.2844 62.7647 15.4555 62.2067 16.3529C61.6486 17.2503 60.4534 17.5345 59.5376 16.9878L50.1856 11.3843Z" fill="white"/>
</svg>
