<svg width="73" height="22" viewBox="0 0 73 22" fill="none" xmlns="http://www.w3.org/2000/svg">
<path d="M7.13903 19.6331C7.13903 20.8896 8.1529 21.8834 9.4355 21.8834C10.7181 21.8834 11.732 20.8896 11.732 19.6331V5.40042H16.1462C17.3093 5.40042 18.2639 4.46534 18.2639 3.32531C18.2639 2.18558 17.3096 1.25049 16.1462 1.25049H2.72484C1.56171 1.25049 0.607422 2.18558 0.607422 3.32531C0.607422 4.46505 1.56171 5.40042 2.72484 5.40042H7.13903V19.6331ZM22.5285 22.0002C24.7356 22.0002 26.2566 21.2111 27.3601 20.0129V20.0421C27.3601 20.9772 28.225 21.8834 29.5374 21.8834C30.7601 21.8834 31.7445 20.9483 31.7445 19.7499V12.6189C31.7445 10.5146 31.2076 8.79044 30.0147 7.62151C28.8814 6.51097 27.092 5.86811 24.6164 5.86811C22.4987 5.86811 20.948 6.16035 19.5164 6.68642C18.8008 6.94946 18.2937 7.62151 18.2937 8.41062C18.2937 9.43358 19.1288 10.2227 20.1727 10.2227C20.3816 10.2227 20.5607 10.1935 20.8288 10.1059C21.6937 9.84288 22.7079 9.66743 23.9604 9.66743C26.2271 9.66743 27.3902 10.6904 27.3902 12.5314V12.7944C26.2569 12.4146 25.0937 12.1516 23.4831 12.1516C19.6952 12.1516 17.0409 13.7298 17.0409 17.149V17.2074C17.0409 20.3052 19.5164 22.0002 22.5288 22.0002H22.5285ZM23.9005 18.9316C22.4391 18.9316 21.425 18.2303 21.425 17.0319V16.9735C21.425 15.5708 22.6179 14.8108 24.5566 14.8108C25.6601 14.8108 26.674 15.0447 27.4495 15.3953V16.1844C27.4495 17.7918 26.0179 18.9316 23.9005 18.9316ZM35.6516 19.6623C35.6516 20.8896 36.6658 21.8834 37.9183 21.8834C39.1708 21.8834 40.185 20.8896 40.185 19.6623V15.5124C40.185 12.3562 41.4676 10.6317 43.7641 10.1059C44.6885 9.90127 45.4641 9.20003 45.4641 8.03081C45.4641 6.77429 44.6588 5.8684 43.257 5.8684C41.9148 5.8684 40.8413 7.27118 40.185 8.79073V8.08949C40.185 6.86217 39.1708 5.8684 37.9183 5.8684C36.6658 5.8684 35.6516 6.86188 35.6516 8.08949V19.6626V19.6623Z" fill="#27225C"/>
<path d="M58.3655 0.921387C61.3131 0.921387 63.9842 2.09321 65.9196 3.98737C66.9972 5.04213 67.8461 6.31888 68.388 7.74015C68.483 7.98845 68.4343 8.24918 68.2559 8.44891C68.0777 8.64836 67.8205 8.73016 67.5568 8.67119L63.8063 7.83149L63.7856 7.80143V7.80114C63.5529 7.46468 63.2883 7.15135 62.996 6.86519C61.8128 5.70782 60.1762 4.99154 58.3655 4.99154C56.5552 4.99154 54.9183 5.70782 53.7354 6.86519C52.5561 8.01909 51.8269 9.61871 51.8269 11.3892C51.8269 13.1596 52.5564 14.7592 53.7354 15.9131C54.8859 17.0387 56.4658 17.7469 58.2166 17.785C58.3526 17.7879 58.4685 17.8223 58.5832 17.8931L62.0231 20.0197C62.2614 20.1671 62.3847 20.4192 62.3526 20.6938C62.3204 20.9684 62.1423 21.1866 61.8759 21.2774C60.7762 21.6523 59.5948 21.8566 58.3655 21.8566C55.418 21.8566 52.7472 20.6848 50.8118 18.7907C48.8726 16.8927 47.6729 14.2754 47.6729 11.3892C47.6729 8.50296 48.8726 5.88588 50.8118 3.98766C52.7475 2.0935 55.4186 0.921676 58.3658 0.921676L58.3655 0.921387Z" fill="#27225C"/>
<path d="M58.304 13.0976C57.2382 12.4611 56.9007 11.0982 57.55 10.0539C58.1996 9.00955 59.5904 8.67887 60.6562 9.31508L71.5395 15.8361C72.6053 16.4726 72.9427 17.8355 72.2935 18.8798C71.6439 19.9242 70.253 20.2549 69.1872 19.6187L58.304 13.0976Z" fill="#5E5AE3"/>
</svg>
