<svg width="148" height="22" viewBox="0 0 148 22" fill="none" xmlns="http://www.w3.org/2000/svg">
<path d="M1.26 17H3.429V12.473H6.615C6.735 12.473 6.894 12.467 7.092 12.455C7.296 12.443 7.482 12.425 7.65 12.401C8.766 12.227 9.594 11.762 10.134 11.006C10.68 10.244 10.953 9.329 10.953 8.261C10.953 7.187 10.683 6.272 10.143 5.516C9.609 4.754 8.778 4.286 7.65 4.112C7.482 4.082 7.299 4.064 7.101 4.058C6.903 4.046 6.741 4.04 6.615 4.04H1.26V17ZM3.429 10.448V6.074H6.525C6.645 6.074 6.78 6.08 6.93 6.092C7.08 6.104 7.218 6.125 7.344 6.155C7.704 6.245 7.986 6.407 8.19 6.641C8.4 6.869 8.547 7.127 8.631 7.415C8.721 7.703 8.766 7.985 8.766 8.261C8.766 8.537 8.721 8.819 8.631 9.107C8.547 9.395 8.4 9.653 8.19 9.881C7.986 10.109 7.704 10.268 7.344 10.358C7.218 10.394 7.08 10.418 6.93 10.43C6.78 10.442 6.645 10.448 6.525 10.448H3.429ZM15.228 17.27C16.002 17.27 16.659 17.144 17.199 16.892C17.745 16.634 18.225 16.235 18.639 15.695V17H20.538V11.033C20.538 10.613 20.52 10.226 20.484 9.872C20.448 9.512 20.343 9.161 20.169 8.819C19.851 8.177 19.362 7.715 18.702 7.433C18.048 7.151 17.289 7.01 16.425 7.01C15.285 7.01 14.376 7.259 13.698 7.757C13.02 8.255 12.561 8.915 12.321 9.737L14.301 10.358C14.463 9.86 14.748 9.509 15.156 9.305C15.564 9.101 15.987 8.999 16.425 8.999C17.085 8.999 17.571 9.134 17.883 9.404C18.195 9.668 18.372 10.079 18.414 10.637C17.562 10.763 16.77 10.886 16.038 11.006C15.312 11.12 14.694 11.261 14.184 11.429C13.416 11.693 12.855 12.068 12.501 12.554C12.147 13.034 11.97 13.628 11.97 14.336C11.97 14.87 12.093 15.359 12.339 15.803C12.591 16.247 12.96 16.604 13.446 16.874C13.932 17.138 14.526 17.27 15.228 17.27ZM15.66 15.542C15.15 15.542 14.76 15.425 14.49 15.191C14.226 14.957 14.094 14.663 14.094 14.309C14.094 13.991 14.196 13.733 14.4 13.535C14.61 13.337 14.901 13.169 15.273 13.031C15.615 12.917 16.026 12.818 16.506 12.734C16.986 12.644 17.613 12.539 18.387 12.419C18.381 12.647 18.366 12.902 18.342 13.184C18.318 13.46 18.261 13.709 18.171 13.931C18.099 14.153 17.958 14.39 17.748 14.642C17.544 14.894 17.268 15.107 16.92 15.281C16.572 15.455 16.152 15.542 15.66 15.542ZM23.6142 21.32H25.6482L31.0662 7.28H28.8972L26.2602 14.237L23.5422 7.28H21.2832L25.2162 16.928L23.6142 21.32ZM32.3904 17H34.5774V11.015C34.5774 10.409 34.7424 9.917 35.0724 9.539C35.4084 9.161 35.8524 8.972 36.4044 8.972C36.9744 8.972 37.4244 9.161 37.7544 9.539C38.0844 9.917 38.2494 10.445 38.2494 11.123V17H40.4094V11.015C40.4094 10.373 40.5834 9.872 40.9314 9.512C41.2854 9.152 41.7234 8.972 42.2454 8.972C42.8034 8.972 43.2474 9.161 43.5774 9.539C43.9134 9.911 44.0814 10.43 44.0814 11.096V17H46.2504V10.547C46.2504 9.491 45.9624 8.642 45.3864 8C44.8164 7.358 43.9944 7.037 42.9204 7.037C42.2904 7.037 41.7144 7.175 41.1924 7.451C40.6704 7.727 40.2594 8.105 39.9594 8.585C39.7014 8.111 39.3354 7.736 38.8614 7.46C38.3874 7.178 37.8084 7.037 37.1244 7.037C36.5424 7.037 36.0054 7.154 35.5134 7.388C35.0274 7.616 34.6254 7.931 34.3074 8.333V7.28H32.3904V17ZM52.8587 17.27C53.7947 17.27 54.6497 17.03 55.4237 16.55C56.2037 16.064 56.7797 15.38 57.1517 14.498L55.0097 13.85C54.5777 14.774 53.8187 15.236 52.7327 15.236C51.9947 15.236 51.4127 15.023 50.9867 14.597C50.5607 14.165 50.3057 13.547 50.2217 12.743H57.2597C57.3437 11.573 57.2147 10.559 56.8727 9.701C56.5307 8.843 56.0057 8.18 55.2977 7.712C54.5957 7.244 53.7407 7.01 52.7327 7.01C51.7787 7.01 50.9387 7.226 50.2127 7.658C49.4867 8.084 48.9197 8.69 48.5117 9.476C48.1037 10.262 47.8997 11.186 47.8997 12.248C47.8997 13.232 48.1067 14.102 48.5207 14.858C48.9407 15.614 49.5227 16.205 50.2667 16.631C51.0107 17.057 51.8747 17.27 52.8587 17.27ZM52.8227 8.909C53.4947 8.909 54.0107 9.086 54.3707 9.44C54.7367 9.788 54.9677 10.343 55.0637 11.105H50.2757C50.5337 9.641 51.3827 8.909 52.8227 8.909ZM58.9861 17H61.1821V12.005C61.1821 11.219 61.2931 10.613 61.5151 10.187C61.7431 9.755 62.0311 9.458 62.3791 9.296C62.7331 9.128 63.0931 9.044 63.4591 9.044C63.9751 9.044 64.3861 9.158 64.6921 9.386C64.9981 9.608 65.2231 9.893 65.3671 10.241C65.5171 10.583 65.6131 10.94 65.6551 11.312C65.7031 11.684 65.7271 12.02 65.7271 12.32V17H67.9231V11.573C67.9231 11.345 67.9021 11.042 67.8601 10.664C67.8241 10.286 67.7401 9.887 67.6081 9.467C67.4761 9.047 67.2721 8.651 66.9961 8.279C66.7201 7.901 66.3451 7.595 65.8711 7.361C65.4031 7.121 64.8121 7.001 64.0981 7.001C63.3961 7.001 62.7781 7.124 62.2441 7.37C61.7161 7.61 61.2751 7.94 60.9211 8.36V7.28H58.9861V17ZM75.9687 17V15.182C75.3627 15.272 74.8227 15.296 74.3487 15.254C73.8747 15.212 73.5297 15.011 73.3137 14.651C73.1997 14.465 73.1367 14.225 73.1247 13.931C73.1187 13.631 73.1157 13.289 73.1157 12.905V8.981H75.9687V7.28H73.1157V4.58H70.9557V7.28H69.1917V8.981H70.9557V13.031C70.9557 13.589 70.9617 14.087 70.9737 14.525C70.9857 14.957 71.1027 15.383 71.3247 15.803C71.5767 16.265 71.9457 16.604 72.4317 16.82C72.9177 17.03 73.4667 17.141 74.0787 17.153C74.6967 17.171 75.3267 17.12 75.9687 17ZM81.6623 17H83.6963V8.693L87.6653 17H88.5293L92.5073 8.693V17H94.5323V4.04H92.5793L88.0973 13.22L83.6153 4.04H81.6623V17ZM101.48 17.27C102.416 17.27 103.271 17.03 104.045 16.55C104.825 16.064 105.401 15.38 105.773 14.498L103.631 13.85C103.199 14.774 102.44 15.236 101.354 15.236C100.616 15.236 100.034 15.023 99.6078 14.597C99.1818 14.165 98.9268 13.547 98.8428 12.743H105.881C105.965 11.573 105.836 10.559 105.494 9.701C105.152 8.843 104.627 8.18 103.919 7.712C103.217 7.244 102.362 7.01 101.354 7.01C100.4 7.01 99.5598 7.226 98.8338 7.658C98.1078 8.084 97.5408 8.69 97.1328 9.476C96.7248 10.262 96.5208 11.186 96.5208 12.248C96.5208 13.232 96.7278 14.102 97.1418 14.858C97.5618 15.614 98.1438 16.205 98.8878 16.631C99.6318 17.057 100.496 17.27 101.48 17.27ZM101.444 8.909C102.116 8.909 102.632 9.086 102.992 9.44C103.358 9.788 103.589 10.343 103.685 11.105H98.8968C99.1548 9.641 100.004 8.909 101.444 8.909ZM113.586 17V15.182C112.98 15.272 112.44 15.296 111.966 15.254C111.492 15.212 111.147 15.011 110.931 14.651C110.817 14.465 110.754 14.225 110.742 13.931C110.736 13.631 110.733 13.289 110.733 12.905V8.981H113.586V7.28H110.733V4.58H108.573V7.28H106.809V8.981H108.573V13.031C108.573 13.589 108.579 14.087 108.591 14.525C108.603 14.957 108.72 15.383 108.942 15.803C109.194 16.265 109.563 16.604 110.049 16.82C110.535 17.03 111.084 17.141 111.696 17.153C112.314 17.171 112.944 17.12 113.586 17ZM115.658 17H117.854V12.005C117.854 11.219 117.965 10.613 118.187 10.187C118.415 9.755 118.703 9.458 119.051 9.296C119.405 9.128 119.765 9.044 120.131 9.044C120.647 9.044 121.058 9.158 121.364 9.386C121.67 9.608 121.895 9.893 122.039 10.241C122.189 10.583 122.285 10.94 122.327 11.312C122.375 11.684 122.399 12.02 122.399 12.32V17H124.595V11.573C124.595 11.345 124.574 11.042 124.532 10.664C124.496 10.286 124.412 9.887 124.28 9.467C124.148 9.047 123.944 8.651 123.668 8.279C123.392 7.901 123.017 7.595 122.543 7.361C122.075 7.121 121.484 7.001 120.77 7.001C120.068 7.001 119.45 7.124 118.916 7.37C118.388 7.61 117.947 7.94 117.593 8.36V4.04H115.658V17ZM131.237 17.27C132.209 17.27 133.058 17.054 133.784 16.622C134.51 16.184 135.074 15.581 135.476 14.813C135.884 14.039 136.088 13.148 136.088 12.14C136.088 11.138 135.887 10.253 135.485 9.485C135.083 8.711 134.519 8.105 133.793 7.667C133.067 7.229 132.215 7.01 131.237 7.01C130.283 7.01 129.443 7.226 128.717 7.658C127.991 8.09 127.424 8.69 127.016 9.458C126.608 10.226 126.404 11.12 126.404 12.14C126.404 13.142 126.602 14.03 126.998 14.804C127.4 15.572 127.964 16.175 128.69 16.613C129.416 17.051 130.265 17.27 131.237 17.27ZM131.237 15.236C130.403 15.236 129.77 14.957 129.338 14.399C128.912 13.835 128.699 13.082 128.699 12.14C128.699 11.222 128.903 10.478 129.311 9.908C129.725 9.332 130.367 9.044 131.237 9.044C132.089 9.044 132.728 9.326 133.154 9.89C133.58 10.448 133.793 11.198 133.793 12.14C133.793 13.052 133.58 13.796 133.154 14.372C132.734 14.948 132.095 15.236 131.237 15.236ZM141.968 17.27C142.544 17.27 143.063 17.183 143.525 17.009C143.987 16.835 144.392 16.592 144.74 16.28V17H146.657V4.04H144.47V7.757C144.146 7.517 143.783 7.334 143.381 7.208C142.979 7.076 142.535 7.01 142.049 7.01C141.131 7.01 140.333 7.232 139.655 7.676C138.983 8.12 138.461 8.729 138.089 9.503C137.717 10.277 137.531 11.156 137.531 12.14C137.531 13.112 137.714 13.985 138.08 14.759C138.446 15.533 138.962 16.145 139.628 16.595C140.294 17.045 141.074 17.27 141.968 17.27ZM142.301 15.326C141.737 15.326 141.272 15.185 140.906 14.903C140.54 14.615 140.267 14.231 140.087 13.751C139.913 13.271 139.826 12.734 139.826 12.14C139.826 11.552 139.916 11.018 140.096 10.538C140.282 10.052 140.561 9.668 140.933 9.386C141.311 9.098 141.791 8.954 142.373 8.954C143.201 8.954 143.801 9.248 144.173 9.836C144.551 10.424 144.74 11.192 144.74 12.14C144.74 13.082 144.551 13.85 144.173 14.444C143.801 15.032 143.177 15.326 142.301 15.326Z" fill="black"/>
</svg>
