<svg width="454" height="242" viewBox="0 0 454 242" fill="none" xmlns="http://www.w3.org/2000/svg">
<rect x="0.3125" width="453.42" height="242" rx="15" fill="#4D49FF"/>
<rect x="18" y="17" width="424" height="204" rx="10" fill="white"/>
<path d="M55.1011 44.2H57.2701V39.673H60.4561C60.5761 39.673 60.7351 39.667 60.9331 39.655C61.1371 39.643 61.3231 39.625 61.4911 39.601C62.6071 39.427 63.4351 38.962 63.9751 38.206C64.5211 37.444 64.7941 36.529 64.7941 35.461C64.7941 34.387 64.5241 33.472 63.9841 32.716C63.4501 31.954 62.6191 31.486 61.4911 31.312C61.3231 31.282 61.1401 31.264 60.9421 31.258C60.7441 31.246 60.5821 31.24 60.4561 31.24H55.1011V44.2ZM57.2701 37.648V33.274H60.3661C60.4861 33.274 60.6211 33.28 60.7711 33.292C60.9211 33.304 61.0591 33.325 61.1851 33.355C61.5451 33.445 61.8271 33.607 62.0311 33.841C62.2411 34.069 62.3881 34.327 62.4721 34.615C62.5621 34.903 62.6071 35.185 62.6071 35.461C62.6071 35.737 62.5621 36.019 62.4721 36.307C62.3881 36.595 62.2411 36.853 62.0311 37.081C61.8271 37.309 61.5451 37.468 61.1851 37.558C61.0591 37.594 60.9211 37.618 60.7711 37.63C60.6211 37.642 60.4861 37.648 60.3661 37.648H57.2701ZM69.0691 44.47C69.8431 44.47 70.5001 44.344 71.0401 44.092C71.5861 43.834 72.0661 43.435 72.4801 42.895V44.2H74.3791V38.233C74.3791 37.813 74.3611 37.426 74.3251 37.072C74.2891 36.712 74.1841 36.361 74.0101 36.019C73.6921 35.377 73.2031 34.915 72.5431 34.633C71.8891 34.351 71.1301 34.21 70.2661 34.21C69.1261 34.21 68.2171 34.459 67.5391 34.957C66.8611 35.455 66.4021 36.115 66.1621 36.937L68.1421 37.558C68.3041 37.06 68.5891 36.709 68.9971 36.505C69.4051 36.301 69.8281 36.199 70.2661 36.199C70.9261 36.199 71.4121 36.334 71.7241 36.604C72.0361 36.868 72.2131 37.279 72.2551 37.837C71.4031 37.963 70.6111 38.086 69.8791 38.206C69.1531 38.32 68.5351 38.461 68.0251 38.629C67.2571 38.893 66.6961 39.268 66.3421 39.754C65.9881 40.234 65.8111 40.828 65.8111 41.536C65.8111 42.07 65.9341 42.559 66.1801 43.003C66.4321 43.447 66.8011 43.804 67.2871 44.074C67.7731 44.338 68.3671 44.47 69.0691 44.47ZM69.5011 42.742C68.9911 42.742 68.6011 42.625 68.3311 42.391C68.0671 42.157 67.9351 41.863 67.9351 41.509C67.9351 41.191 68.0371 40.933 68.2411 40.735C68.4511 40.537 68.7421 40.369 69.1141 40.231C69.4561 40.117 69.8671 40.018 70.3471 39.934C70.8271 39.844 71.4541 39.739 72.2281 39.619C72.2221 39.847 72.2071 40.102 72.1831 40.384C72.1591 40.66 72.1021 40.909 72.0121 41.131C71.9401 41.353 71.7991 41.59 71.5891 41.842C71.3851 42.094 71.1091 42.307 70.7611 42.481C70.4131 42.655 69.9931 42.742 69.5011 42.742ZM77.4553 48.52H79.4893L84.9073 34.48H82.7383L80.1013 41.437L77.3833 34.48H75.1243L79.0573 44.128L77.4553 48.52ZM86.2315 44.2H88.4185V38.215C88.4185 37.609 88.5835 37.117 88.9135 36.739C89.2495 36.361 89.6935 36.172 90.2455 36.172C90.8155 36.172 91.2655 36.361 91.5955 36.739C91.9255 37.117 92.0905 37.645 92.0905 38.323V44.2H94.2505V38.215C94.2505 37.573 94.4245 37.072 94.7725 36.712C95.1265 36.352 95.5645 36.172 96.0865 36.172C96.6445 36.172 97.0885 36.361 97.4185 36.739C97.7545 37.111 97.9225 37.63 97.9225 38.296V44.2H100.092V37.747C100.092 36.691 99.8035 35.842 99.2275 35.2C98.6575 34.558 97.8355 34.237 96.7615 34.237C96.1315 34.237 95.5555 34.375 95.0335 34.651C94.5115 34.927 94.1005 35.305 93.8005 35.785C93.5425 35.311 93.1765 34.936 92.7025 34.66C92.2285 34.378 91.6495 34.237 90.9655 34.237C90.3835 34.237 89.8465 34.354 89.3545 34.588C88.8685 34.816 88.4665 35.131 88.1485 35.533V34.48H86.2315V44.2ZM106.7 44.47C107.636 44.47 108.491 44.23 109.265 43.75C110.045 43.264 110.621 42.58 110.993 41.698L108.851 41.05C108.419 41.974 107.66 42.436 106.574 42.436C105.836 42.436 105.254 42.223 104.828 41.797C104.402 41.365 104.147 40.747 104.063 39.943H111.101C111.185 38.773 111.056 37.759 110.714 36.901C110.372 36.043 109.847 35.38 109.139 34.912C108.437 34.444 107.582 34.21 106.574 34.21C105.62 34.21 104.78 34.426 104.054 34.858C103.328 35.284 102.761 35.89 102.353 36.676C101.945 37.462 101.741 38.386 101.741 39.448C101.741 40.432 101.948 41.302 102.362 42.058C102.782 42.814 103.364 43.405 104.108 43.831C104.852 44.257 105.716 44.47 106.7 44.47ZM106.664 36.109C107.336 36.109 107.852 36.286 108.212 36.64C108.578 36.988 108.809 37.543 108.905 38.305H104.117C104.375 36.841 105.224 36.109 106.664 36.109ZM112.827 44.2H115.023V39.205C115.023 38.419 115.134 37.813 115.356 37.387C115.584 36.955 115.872 36.658 116.22 36.496C116.574 36.328 116.934 36.244 117.3 36.244C117.816 36.244 118.227 36.358 118.533 36.586C118.839 36.808 119.064 37.093 119.208 37.441C119.358 37.783 119.454 38.14 119.496 38.512C119.544 38.884 119.568 39.22 119.568 39.52V44.2H121.764V38.773C121.764 38.545 121.743 38.242 121.701 37.864C121.665 37.486 121.581 37.087 121.449 36.667C121.317 36.247 121.113 35.851 120.837 35.479C120.561 35.101 120.186 34.795 119.712 34.561C119.244 34.321 118.653 34.201 117.939 34.201C117.237 34.201 116.619 34.324 116.085 34.57C115.557 34.81 115.116 35.14 114.762 35.56V34.48H112.827V44.2ZM129.81 44.2V42.382C129.204 42.472 128.664 42.496 128.19 42.454C127.716 42.412 127.371 42.211 127.155 41.851C127.041 41.665 126.978 41.425 126.966 41.131C126.96 40.831 126.957 40.489 126.957 40.105V36.181H129.81V34.48H126.957V31.78H124.797V34.48H123.033V36.181H124.797V40.231C124.797 40.789 124.803 41.287 124.815 41.725C124.827 42.157 124.944 42.583 125.166 43.003C125.418 43.465 125.787 43.804 126.273 44.02C126.759 44.23 127.308 44.341 127.92 44.353C128.538 44.371 129.168 44.32 129.81 44.2ZM135.503 44.2H137.537V35.893L141.506 44.2H142.37L146.348 35.893V44.2H148.373V31.24H146.42L141.938 40.42L137.456 31.24H135.503V44.2ZM155.321 44.47C156.257 44.47 157.112 44.23 157.886 43.75C158.666 43.264 159.242 42.58 159.614 41.698L157.472 41.05C157.04 41.974 156.281 42.436 155.195 42.436C154.457 42.436 153.875 42.223 153.449 41.797C153.023 41.365 152.768 40.747 152.684 39.943H159.722C159.806 38.773 159.677 37.759 159.335 36.901C158.993 36.043 158.468 35.38 157.76 34.912C157.058 34.444 156.203 34.21 155.195 34.21C154.241 34.21 153.401 34.426 152.675 34.858C151.949 35.284 151.382 35.89 150.974 36.676C150.566 37.462 150.362 38.386 150.362 39.448C150.362 40.432 150.569 41.302 150.983 42.058C151.403 42.814 151.985 43.405 152.729 43.831C153.473 44.257 154.337 44.47 155.321 44.47ZM155.285 36.109C155.957 36.109 156.473 36.286 156.833 36.64C157.199 36.988 157.43 37.543 157.526 38.305H152.738C152.996 36.841 153.845 36.109 155.285 36.109ZM167.427 44.2V42.382C166.821 42.472 166.281 42.496 165.807 42.454C165.333 42.412 164.988 42.211 164.772 41.851C164.658 41.665 164.595 41.425 164.583 41.131C164.577 40.831 164.574 40.489 164.574 40.105V36.181H167.427V34.48H164.574V31.78H162.414V34.48H160.65V36.181H162.414V40.231C162.414 40.789 162.42 41.287 162.432 41.725C162.444 42.157 162.561 42.583 162.783 43.003C163.035 43.465 163.404 43.804 163.89 44.02C164.376 44.23 164.925 44.341 165.537 44.353C166.155 44.371 166.785 44.32 167.427 44.2ZM169.499 44.2H171.695V39.205C171.695 38.419 171.806 37.813 172.028 37.387C172.256 36.955 172.544 36.658 172.892 36.496C173.246 36.328 173.606 36.244 173.972 36.244C174.488 36.244 174.899 36.358 175.205 36.586C175.511 36.808 175.736 37.093 175.88 37.441C176.03 37.783 176.126 38.14 176.168 38.512C176.216 38.884 176.24 39.22 176.24 39.52V44.2H178.436V38.773C178.436 38.545 178.415 38.242 178.373 37.864C178.337 37.486 178.253 37.087 178.121 36.667C177.989 36.247 177.785 35.851 177.509 35.479C177.233 35.101 176.858 34.795 176.384 34.561C175.916 34.321 175.325 34.201 174.611 34.201C173.909 34.201 173.291 34.324 172.757 34.57C172.229 34.81 171.788 35.14 171.434 35.56V31.24H169.499V44.2ZM185.078 44.47C186.05 44.47 186.899 44.254 187.625 43.822C188.351 43.384 188.915 42.781 189.317 42.013C189.725 41.239 189.929 40.348 189.929 39.34C189.929 38.338 189.728 37.453 189.326 36.685C188.924 35.911 188.36 35.305 187.634 34.867C186.908 34.429 186.056 34.21 185.078 34.21C184.124 34.21 183.284 34.426 182.558 34.858C181.832 35.29 181.265 35.89 180.857 36.658C180.449 37.426 180.245 38.32 180.245 39.34C180.245 40.342 180.443 41.23 180.839 42.004C181.241 42.772 181.805 43.375 182.531 43.813C183.257 44.251 184.106 44.47 185.078 44.47ZM185.078 42.436C184.244 42.436 183.611 42.157 183.179 41.599C182.753 41.035 182.54 40.282 182.54 39.34C182.54 38.422 182.744 37.678 183.152 37.108C183.566 36.532 184.208 36.244 185.078 36.244C185.93 36.244 186.569 36.526 186.995 37.09C187.421 37.648 187.634 38.398 187.634 39.34C187.634 40.252 187.421 40.996 186.995 41.572C186.575 42.148 185.936 42.436 185.078 42.436ZM195.809 44.47C196.385 44.47 196.904 44.383 197.366 44.209C197.828 44.035 198.233 43.792 198.581 43.48V44.2H200.498V31.24H198.311V34.957C197.987 34.717 197.624 34.534 197.222 34.408C196.82 34.276 196.376 34.21 195.89 34.21C194.972 34.21 194.174 34.432 193.496 34.876C192.824 35.32 192.302 35.929 191.93 36.703C191.558 37.477 191.372 38.356 191.372 39.34C191.372 40.312 191.555 41.185 191.921 41.959C192.287 42.733 192.803 43.345 193.469 43.795C194.135 44.245 194.915 44.47 195.809 44.47ZM196.142 42.526C195.578 42.526 195.113 42.385 194.747 42.103C194.381 41.815 194.108 41.431 193.928 40.951C193.754 40.471 193.667 39.934 193.667 39.34C193.667 38.752 193.757 38.218 193.937 37.738C194.123 37.252 194.402 36.868 194.774 36.586C195.152 36.298 195.632 36.154 196.214 36.154C197.042 36.154 197.642 36.448 198.014 37.036C198.392 37.624 198.581 38.392 198.581 39.34C198.581 40.282 198.392 41.05 198.014 41.644C197.642 42.232 197.018 42.526 196.142 42.526Z" fill="black"/>
<rect x="55.8995" y="133.28" width="356.492" height="71.4" rx="5" fill="#0075FF" fill-opacity="0.21"/>
<path d="M62.9427 154.4H64.1967V151.298H66.4347C66.5147 151.298 66.6167 151.294 66.7407 151.286C66.8687 151.278 66.9887 151.266 67.1007 151.25C67.8207 151.134 68.3607 150.826 68.7207 150.326C69.0847 149.826 69.2667 149.226 69.2667 148.526C69.2667 147.826 69.0867 147.226 68.7267 146.726C68.3667 146.226 67.8247 145.92 67.1007 145.808C66.9887 145.788 66.8707 145.776 66.7467 145.772C66.6227 145.764 66.5187 145.76 66.4347 145.76H62.9427V154.4ZM64.1967 150.11V146.942H66.3867C66.4667 146.942 66.5547 146.946 66.6507 146.954C66.7507 146.962 66.8447 146.978 66.9327 147.002C67.3167 147.09 67.5887 147.286 67.7487 147.59C67.9087 147.894 67.9887 148.206 67.9887 148.526C67.9887 148.842 67.9087 149.154 67.7487 149.462C67.5887 149.766 67.3167 149.964 66.9327 150.056C66.8447 150.076 66.7507 150.09 66.6507 150.098C66.5547 150.106 66.4667 150.11 66.3867 150.11H64.1967ZM72.0969 154.58C73.1289 154.58 73.9069 154.206 74.4309 153.458V154.4H75.5409V150.41C75.5409 150.138 75.5289 149.884 75.5049 149.648C75.4809 149.412 75.4169 149.188 75.3129 148.976C75.1129 148.548 74.7969 148.236 74.3649 148.04C73.9369 147.84 73.4329 147.74 72.8529 147.74C72.1049 147.74 71.5049 147.904 71.0529 148.232C70.6009 148.56 70.2969 149.002 70.1409 149.558L71.3109 149.918C71.4229 149.558 71.6209 149.298 71.9049 149.138C72.1889 148.978 72.5009 148.898 72.8409 148.898C73.3449 148.898 73.7089 149.006 73.9329 149.222C74.1609 149.434 74.2849 149.764 74.3049 150.212C73.7769 150.284 73.2609 150.36 72.7569 150.44C72.2529 150.516 71.8129 150.608 71.4369 150.716C70.9369 150.876 70.5569 151.114 70.2969 151.43C70.0369 151.746 69.9069 152.148 69.9069 152.636C69.9069 152.988 69.9889 153.312 70.1529 153.608C70.3209 153.9 70.5669 154.136 70.8909 154.316C71.2189 154.492 71.6209 154.58 72.0969 154.58ZM72.3189 153.554C71.9189 153.554 71.6229 153.462 71.4309 153.278C71.2429 153.094 71.1489 152.876 71.1489 152.624C71.1489 152.368 71.2329 152.166 71.4009 152.018C71.5729 151.87 71.7869 151.752 72.0429 151.664C72.3149 151.584 72.6349 151.514 73.0029 151.454C73.3749 151.394 73.8049 151.328 74.2929 151.256C74.2889 151.408 74.2789 151.578 74.2629 151.766C74.2469 151.954 74.2129 152.122 74.1609 152.27C74.1129 152.482 74.0109 152.686 73.8549 152.882C73.7029 153.078 73.4969 153.24 73.2369 153.368C72.9809 153.492 72.6749 153.554 72.3189 153.554ZM77.6117 157.28H78.8057L82.3817 147.92H81.1097L79.2797 152.792L77.3657 147.92H76.0577L78.6797 154.37L77.6117 157.28ZM88.2463 146.858H89.5003V145.64H88.2463V146.858ZM88.2463 154.4H89.5003V147.92H88.2463V154.4ZM91.2961 154.4H92.5681V151.028C92.5681 150.516 92.6421 150.108 92.7901 149.804C92.9421 149.496 93.1421 149.274 93.3901 149.138C93.6381 149.002 93.9121 148.934 94.2121 148.934C94.5561 148.934 94.8361 149.004 95.0521 149.144C95.2681 149.284 95.4341 149.468 95.5501 149.696C95.6661 149.924 95.7441 150.172 95.7841 150.44C95.8281 150.704 95.8501 150.962 95.8501 151.214V154.4H97.1221V150.8C97.1221 150.6 97.1041 150.368 97.0681 150.104C97.0321 149.84 96.9641 149.57 96.8641 149.294C96.7641 149.018 96.6181 148.764 96.4261 148.532C96.2381 148.296 95.9921 148.106 95.6881 147.962C95.3841 147.818 95.0081 147.746 94.5601 147.746C94.0921 147.746 93.6761 147.83 93.3121 147.998C92.9521 148.166 92.6541 148.398 92.4181 148.694V147.92H91.2961V154.4ZM102.593 154.4H103.871V145.76H102.593L100.967 146.732V148.13L102.593 147.14V154.4ZM109.81 154.4H111.082V152.894H111.94V151.706H111.082V149.366H109.81V151.706H107.344L110.152 145.76H108.718L105.91 151.706V152.894H109.81V154.4ZM118.357 154.58C118.765 154.58 119.129 154.512 119.449 154.376C119.773 154.24 120.053 154.05 120.289 153.806V154.4H121.405V145.76H120.145V148.364C119.921 148.164 119.661 148.01 119.365 147.902C119.069 147.794 118.741 147.74 118.381 147.74C117.773 147.74 117.247 147.89 116.803 148.19C116.363 148.486 116.023 148.892 115.783 149.408C115.543 149.92 115.423 150.502 115.423 151.154C115.423 151.802 115.541 152.384 115.777 152.9C116.017 153.416 116.357 153.826 116.797 154.13C117.237 154.43 117.757 154.58 118.357 154.58ZM118.531 153.446C118.131 153.446 117.799 153.344 117.535 153.14C117.271 152.936 117.075 152.662 116.947 152.318C116.819 151.97 116.755 151.582 116.755 151.154C116.755 150.73 116.819 150.346 116.947 150.002C117.079 149.658 117.279 149.384 117.547 149.18C117.815 148.976 118.157 148.874 118.573 148.874C119.165 148.874 119.599 149.086 119.875 149.51C120.151 149.934 120.289 150.482 120.289 151.154C120.289 151.826 120.151 152.376 119.875 152.804C119.599 153.232 119.151 153.446 118.531 153.446ZM124.913 154.58C125.945 154.58 126.723 154.206 127.247 153.458V154.4H128.357V150.41C128.357 150.138 128.345 149.884 128.321 149.648C128.297 149.412 128.233 149.188 128.129 148.976C127.929 148.548 127.613 148.236 127.181 148.04C126.753 147.84 126.249 147.74 125.669 147.74C124.921 147.74 124.321 147.904 123.869 148.232C123.417 148.56 123.113 149.002 122.957 149.558L124.127 149.918C124.239 149.558 124.437 149.298 124.721 149.138C125.005 148.978 125.317 148.898 125.657 148.898C126.161 148.898 126.525 149.006 126.749 149.222C126.977 149.434 127.101 149.764 127.121 150.212C126.593 150.284 126.077 150.36 125.573 150.44C125.069 150.516 124.629 150.608 124.253 150.716C123.753 150.876 123.373 151.114 123.113 151.43C122.853 151.746 122.723 152.148 122.723 152.636C122.723 152.988 122.805 153.312 122.969 153.608C123.137 153.9 123.383 154.136 123.707 154.316C124.035 154.492 124.437 154.58 124.913 154.58ZM125.135 153.554C124.735 153.554 124.439 153.462 124.247 153.278C124.059 153.094 123.965 152.876 123.965 152.624C123.965 152.368 124.049 152.166 124.217 152.018C124.389 151.87 124.603 151.752 124.859 151.664C125.131 151.584 125.451 151.514 125.819 151.454C126.191 151.394 126.621 151.328 127.109 151.256C127.105 151.408 127.095 151.578 127.079 151.766C127.063 151.954 127.029 152.122 126.977 152.27C126.929 152.482 126.827 152.686 126.671 152.882C126.519 153.078 126.313 153.24 126.053 153.368C125.797 153.492 125.491 153.554 125.135 153.554ZM130.428 157.28H131.622L135.198 147.92H133.926L132.096 152.792L130.182 147.92H128.874L131.496 154.37L130.428 157.28ZM138.616 154.574C139.436 154.574 140.078 154.392 140.542 154.028C141.01 153.664 141.244 153.162 141.244 152.522C141.244 152.186 141.174 151.902 141.034 151.67C140.898 151.438 140.67 151.238 140.35 151.07C140.03 150.898 139.598 150.742 139.054 150.602C138.546 150.474 138.162 150.364 137.902 150.272C137.646 150.176 137.472 150.08 137.38 149.984C137.288 149.884 137.242 149.762 137.242 149.618C137.242 149.37 137.36 149.176 137.596 149.036C137.832 148.892 138.14 148.828 138.52 148.844C138.916 148.86 139.238 148.96 139.486 149.144C139.734 149.324 139.88 149.568 139.924 149.876L141.208 149.642C141.136 149.066 140.854 148.606 140.362 148.262C139.87 147.914 139.252 147.74 138.508 147.74C137.748 147.74 137.138 147.918 136.678 148.274C136.218 148.626 135.988 149.096 135.988 149.684C135.988 150 136.056 150.27 136.192 150.494C136.332 150.714 136.564 150.906 136.888 151.07C137.216 151.234 137.658 151.39 138.214 151.538C138.722 151.674 139.1 151.788 139.348 151.88C139.596 151.972 139.758 152.07 139.834 152.174C139.914 152.274 139.954 152.406 139.954 152.57C139.954 152.85 139.842 153.07 139.618 153.23C139.398 153.39 139.092 153.47 138.7 153.47C138.268 153.47 137.906 153.374 137.614 153.182C137.326 152.99 137.142 152.724 137.062 152.384L135.778 152.582C135.89 153.214 136.194 153.704 136.69 154.052C137.186 154.4 137.828 154.574 138.616 154.574Z" fill="black"/>
<rect x="87.8771" y="170" width="299.642" height="7.14" rx="3.57" fill="#4D52FF"/>
<ellipse cx="221.436" cy="174.08" rx="11.8025" ry="10.2001" fill="white" fill-opacity="0.91"/>
<ellipse cx="221.436" cy="174.08" rx="11.8025" ry="10.2001" fill="white" fill-opacity="0.91"/>
<ellipse cx="221.436" cy="174.08" rx="11.8025" ry="10.2001" fill="white" fill-opacity="0.91"/>
<ellipse cx="221.436" cy="174.08" rx="11.8025" ry="10.2001" stroke="#4D49FF"/>
<ellipse cx="387.85" cy="174.08" rx="11.8025" ry="10.2001" fill="white" fill-opacity="0.91"/>
<ellipse cx="387.85" cy="174.08" rx="11.8025" ry="10.2001" fill="white" fill-opacity="0.91"/>
<ellipse cx="387.85" cy="174.08" rx="11.8025" ry="10.2001" fill="white" fill-opacity="0.91"/>
<ellipse cx="387.85" cy="174.08" rx="11.8025" ry="10.2001" stroke="#4D49FF"/>
<path d="M63.6667 197.28H64.3907V191.52H63.6667L62.5827 192.168V192.964L63.6667 192.308V197.28ZM68.4007 197.28H69.1207V196.22H69.7207V195.544H69.1207V193.924H68.4007V195.544H66.5607L68.4607 191.52H67.6527L65.7527 195.544V196.22H68.4007V197.28ZM73.9759 197.4C74.2692 197.4 74.5279 197.347 74.7519 197.24C74.9786 197.131 75.1706 196.981 75.3279 196.792V197.28H75.9639V191.52H75.2479V193.352C75.0932 193.192 74.9092 193.067 74.6959 192.976C74.4826 192.885 74.2412 192.84 73.9719 192.84C73.5719 192.84 73.2266 192.94 72.9359 193.14C72.6479 193.337 72.4266 193.608 72.2719 193.952C72.1172 194.296 72.0399 194.684 72.0399 195.116C72.0399 195.548 72.1172 195.936 72.2719 196.28C72.4266 196.624 72.6479 196.897 72.9359 197.1C73.2266 197.3 73.5732 197.4 73.9759 197.4ZM74.0639 196.748C73.7812 196.748 73.5452 196.676 73.3559 196.532C73.1692 196.388 73.0292 196.193 72.9359 195.948C72.8426 195.7 72.7959 195.423 72.7959 195.116C72.7959 194.812 72.8412 194.537 72.9319 194.292C73.0252 194.047 73.1666 193.852 73.3559 193.708C73.5479 193.564 73.7906 193.492 74.0839 193.492C74.5052 193.492 74.8172 193.644 75.0199 193.948C75.2252 194.249 75.3279 194.639 75.3279 195.116C75.3279 195.591 75.2266 195.981 75.0239 196.288C74.8212 196.595 74.5012 196.748 74.0639 196.748ZM78.3126 197.4C79.0326 197.4 79.5659 197.136 79.9126 196.608V197.28H80.5446V194.608C80.5446 194.437 80.5366 194.275 80.5206 194.12C80.5046 193.963 80.4659 193.817 80.4046 193.684C80.2819 193.401 80.0793 193.191 79.7966 193.052C79.5139 192.911 79.1779 192.84 78.7886 192.84C78.3006 192.84 77.9059 192.948 77.6046 193.164C77.3059 193.38 77.1059 193.677 77.0046 194.056L77.6806 194.26C77.7579 193.996 77.8953 193.804 78.0926 193.684C78.2899 193.564 78.5193 193.504 78.7806 193.504C79.1539 193.504 79.4219 193.588 79.5846 193.756C79.7499 193.921 79.8366 194.176 79.8446 194.52C79.5246 194.565 79.1886 194.613 78.8366 194.664C78.4873 194.712 78.1766 194.772 77.9046 194.844C77.5766 194.94 77.3179 195.091 77.1286 195.296C76.9393 195.499 76.8446 195.771 76.8446 196.112C76.8446 196.344 76.8993 196.557 77.0086 196.752C77.1206 196.947 77.2846 197.104 77.5006 197.224C77.7193 197.341 77.9899 197.4 78.3126 197.4ZM78.4206 196.804C78.1139 196.804 77.8926 196.733 77.7566 196.592C77.6206 196.448 77.5526 196.287 77.5526 196.108C77.5526 195.905 77.6193 195.751 77.7526 195.644C77.8886 195.535 78.0459 195.452 78.2246 195.396C78.4353 195.337 78.6806 195.288 78.9606 195.248C79.2406 195.208 79.5326 195.168 79.8366 195.128C79.8366 195.227 79.8313 195.339 79.8206 195.464C79.8126 195.589 79.7939 195.704 79.7646 195.808C79.7139 196.075 79.5726 196.308 79.3406 196.508C79.1113 196.705 78.8046 196.804 78.4206 196.804ZM81.9424 199.2H82.6344L84.9864 192.96H84.2624L82.9984 196.36L81.6504 192.96H80.9024L82.6544 197.264L81.9424 199.2ZM87.2791 197.396C87.8178 197.396 88.2404 197.277 88.5471 197.04C88.8538 196.803 89.0071 196.475 89.0071 196.056C89.0071 195.832 88.9604 195.644 88.8671 195.492C88.7738 195.337 88.6164 195.204 88.3951 195.092C88.1764 194.977 87.8764 194.872 87.4951 194.776C87.1564 194.691 86.8978 194.615 86.7191 194.548C86.5431 194.481 86.4218 194.411 86.3551 194.336C86.2911 194.261 86.2591 194.172 86.2591 194.068C86.2591 193.884 86.3458 193.737 86.5191 193.628C86.6951 193.519 86.9231 193.468 87.2031 193.476C87.4964 193.484 87.7378 193.556 87.9271 193.692C88.1164 193.825 88.2284 194.007 88.2631 194.236L88.9911 194.104C88.9458 193.723 88.7591 193.417 88.4311 193.188C88.1058 192.956 87.6964 192.84 87.2031 192.84C86.7044 192.84 86.3031 192.956 85.9991 193.188C85.6951 193.417 85.5431 193.723 85.5431 194.104C85.5431 194.309 85.5884 194.484 85.6791 194.628C85.7724 194.772 85.9284 194.899 86.1471 195.008C86.3684 195.117 86.6698 195.223 87.0511 195.324C87.4031 195.417 87.6658 195.499 87.8391 195.568C88.0151 195.635 88.1311 195.705 88.1871 195.78C88.2431 195.855 88.2711 195.953 88.2711 196.076C88.2711 196.287 88.1858 196.453 88.0151 196.576C87.8471 196.699 87.6164 196.76 87.3231 196.76C87.0111 196.76 86.7498 196.692 86.5391 196.556C86.3284 196.417 86.1938 196.231 86.1351 195.996L85.4071 196.112C85.4818 196.517 85.6831 196.833 86.0111 197.06C86.3418 197.284 86.7644 197.396 87.2791 197.396Z" fill="black"/>
<path d="M204.692 197.392C205.049 197.392 205.369 197.312 205.652 197.152C205.935 196.992 206.159 196.771 206.324 196.488C206.489 196.203 206.572 195.876 206.572 195.508C206.572 195.172 206.504 194.871 206.368 194.604C206.235 194.337 206.045 194.124 205.8 193.964C205.557 193.804 205.271 193.715 204.94 193.696L206.496 192.204V191.52H203.1V192.2H205.612L203.74 193.892L204.084 194.456C204.175 194.411 204.272 194.375 204.376 194.348C204.48 194.319 204.581 194.304 204.68 194.304C205.027 194.304 205.307 194.416 205.52 194.64C205.733 194.861 205.84 195.151 205.84 195.508C205.84 195.86 205.735 196.148 205.524 196.372C205.316 196.593 205.037 196.707 204.688 196.712C204.432 196.715 204.2 196.647 203.992 196.508C203.787 196.369 203.641 196.167 203.556 195.9L202.872 196.096C202.995 196.496 203.221 196.812 203.552 197.044C203.885 197.276 204.265 197.392 204.692 197.392ZM209.556 197.4C209.929 197.4 210.263 197.316 210.556 197.148C210.849 196.98 211.08 196.749 211.248 196.456C211.416 196.163 211.5 195.829 211.5 195.456V193.344C211.5 192.971 211.416 192.637 211.248 192.344C211.08 192.051 210.849 191.82 210.556 191.652C210.263 191.484 209.929 191.4 209.556 191.4C209.183 191.4 208.849 191.484 208.556 191.652C208.263 191.82 208.032 192.051 207.864 192.344C207.696 192.637 207.612 192.971 207.612 193.344V195.456C207.612 195.829 207.696 196.163 207.864 196.456C208.032 196.749 208.263 196.98 208.556 197.148C208.849 197.316 209.183 197.4 209.556 197.4ZM209.556 196.716C209.332 196.716 209.127 196.661 208.94 196.552C208.756 196.443 208.609 196.296 208.5 196.112C208.391 195.925 208.336 195.72 208.336 195.496V193.3C208.336 193.073 208.391 192.868 208.5 192.684C208.609 192.5 208.756 192.353 208.94 192.244C209.127 192.135 209.332 192.08 209.556 192.08C209.783 192.08 209.988 192.135 210.172 192.244C210.356 192.353 210.503 192.5 210.612 192.684C210.721 192.868 210.776 193.073 210.776 193.3V195.496C210.776 195.72 210.721 195.925 210.612 196.112C210.503 196.296 210.356 196.443 210.172 196.552C209.988 196.661 209.783 196.716 209.556 196.716ZM215.917 197.4C216.211 197.4 216.469 197.347 216.693 197.24C216.92 197.131 217.112 196.981 217.269 196.792V197.28H217.905V191.52H217.189V193.352C217.035 193.192 216.851 193.067 216.637 192.976C216.424 192.885 216.183 192.84 215.913 192.84C215.513 192.84 215.168 192.94 214.877 193.14C214.589 193.337 214.368 193.608 214.213 193.952C214.059 194.296 213.981 194.684 213.981 195.116C213.981 195.548 214.059 195.936 214.213 196.28C214.368 196.624 214.589 196.897 214.877 197.1C215.168 197.3 215.515 197.4 215.917 197.4ZM216.005 196.748C215.723 196.748 215.487 196.676 215.297 196.532C215.111 196.388 214.971 196.193 214.877 195.948C214.784 195.7 214.737 195.423 214.737 195.116C214.737 194.812 214.783 194.537 214.873 194.292C214.967 194.047 215.108 193.852 215.297 193.708C215.489 193.564 215.732 193.492 216.025 193.492C216.447 193.492 216.759 193.644 216.961 193.948C217.167 194.249 217.269 194.639 217.269 195.116C217.269 195.591 217.168 195.981 216.965 196.288C216.763 196.595 216.443 196.748 216.005 196.748ZM220.254 197.4C220.974 197.4 221.507 197.136 221.854 196.608V197.28H222.486V194.608C222.486 194.437 222.478 194.275 222.462 194.12C222.446 193.963 222.407 193.817 222.346 193.684C222.223 193.401 222.021 193.191 221.738 193.052C221.455 192.911 221.119 192.84 220.73 192.84C220.242 192.84 219.847 192.948 219.546 193.164C219.247 193.38 219.047 193.677 218.946 194.056L219.622 194.26C219.699 193.996 219.837 193.804 220.034 193.684C220.231 193.564 220.461 193.504 220.722 193.504C221.095 193.504 221.363 193.588 221.526 193.756C221.691 193.921 221.778 194.176 221.786 194.52C221.466 194.565 221.13 194.613 220.778 194.664C220.429 194.712 220.118 194.772 219.846 194.844C219.518 194.94 219.259 195.091 219.07 195.296C218.881 195.499 218.786 195.771 218.786 196.112C218.786 196.344 218.841 196.557 218.95 196.752C219.062 196.947 219.226 197.104 219.442 197.224C219.661 197.341 219.931 197.4 220.254 197.4ZM220.362 196.804C220.055 196.804 219.834 196.733 219.698 196.592C219.562 196.448 219.494 196.287 219.494 196.108C219.494 195.905 219.561 195.751 219.694 195.644C219.83 195.535 219.987 195.452 220.166 195.396C220.377 195.337 220.622 195.288 220.902 195.248C221.182 195.208 221.474 195.168 221.778 195.128C221.778 195.227 221.773 195.339 221.762 195.464C221.754 195.589 221.735 195.704 221.706 195.808C221.655 196.075 221.514 196.308 221.282 196.508C221.053 196.705 220.746 196.804 220.362 196.804ZM223.884 199.2H224.576L226.928 192.96H226.204L224.94 196.36L223.592 192.96H222.844L224.596 197.264L223.884 199.2ZM229.221 197.396C229.759 197.396 230.182 197.277 230.489 197.04C230.795 196.803 230.949 196.475 230.949 196.056C230.949 195.832 230.902 195.644 230.809 195.492C230.715 195.337 230.558 195.204 230.337 195.092C230.118 194.977 229.818 194.872 229.437 194.776C229.098 194.691 228.839 194.615 228.661 194.548C228.485 194.481 228.363 194.411 228.297 194.336C228.233 194.261 228.201 194.172 228.201 194.068C228.201 193.884 228.287 193.737 228.461 193.628C228.637 193.519 228.865 193.468 229.145 193.476C229.438 193.484 229.679 193.556 229.869 193.692C230.058 193.825 230.17 194.007 230.205 194.236L230.933 194.104C230.887 193.723 230.701 193.417 230.373 193.188C230.047 192.956 229.638 192.84 229.145 192.84C228.646 192.84 228.245 192.956 227.941 193.188C227.637 193.417 227.485 193.723 227.485 194.104C227.485 194.309 227.53 194.484 227.621 194.628C227.714 194.772 227.87 194.899 228.089 195.008C228.31 195.117 228.611 195.223 228.993 195.324C229.345 195.417 229.607 195.499 229.781 195.568C229.957 195.635 230.073 195.705 230.129 195.78C230.185 195.855 230.213 195.953 230.213 196.076C230.213 196.287 230.127 196.453 229.957 196.576C229.789 196.699 229.558 196.76 229.265 196.76C228.953 196.76 228.691 196.692 228.481 196.556C228.27 196.417 228.135 196.231 228.077 195.996L227.349 196.112C227.423 196.517 227.625 196.833 227.953 197.06C228.283 197.284 228.706 197.396 229.221 197.396Z" fill="black"/>
<path d="M366.113 198.3H366.833V197.24H367.433V196.564H366.833V194.944H366.113V196.564H364.273L366.173 192.54H365.365L363.465 196.564V197.24H366.113V198.3ZM370.095 198.42C370.452 198.42 370.78 198.333 371.079 198.16C371.38 197.984 371.622 197.751 371.803 197.46C371.984 197.167 372.075 196.843 372.075 196.488C372.075 196.131 371.992 195.809 371.827 195.524C371.662 195.236 371.438 195.009 371.155 194.844C370.872 194.676 370.552 194.592 370.195 194.592C369.79 194.592 369.431 194.716 369.119 194.964L369.223 193.216H371.675V192.54H368.583L368.407 195.552L369.039 195.792C369.143 195.643 369.284 195.515 369.463 195.408C369.644 195.301 369.862 195.248 370.115 195.248C370.339 195.248 370.546 195.303 370.735 195.412C370.924 195.521 371.075 195.671 371.187 195.86C371.302 196.047 371.359 196.256 371.359 196.488C371.359 196.712 371.303 196.919 371.191 197.108C371.082 197.295 370.934 197.445 370.747 197.56C370.56 197.672 370.35 197.728 370.115 197.728C369.848 197.728 369.599 197.645 369.367 197.48C369.138 197.312 368.987 197.087 368.915 196.804L368.231 196.988C368.308 197.268 368.436 197.516 368.615 197.732C368.796 197.948 369.014 198.117 369.267 198.24C369.523 198.36 369.799 198.42 370.095 198.42ZM376.329 198.42C376.622 198.42 376.881 198.367 377.105 198.26C377.332 198.151 377.524 198.001 377.681 197.812V198.3H378.317V192.54H377.601V194.372C377.446 194.212 377.262 194.087 377.049 193.996C376.836 193.905 376.594 193.86 376.325 193.86C375.925 193.86 375.58 193.96 375.289 194.16C375.001 194.357 374.78 194.628 374.625 194.972C374.47 195.316 374.393 195.704 374.393 196.136C374.393 196.568 374.47 196.956 374.625 197.3C374.78 197.644 375.001 197.917 375.289 198.12C375.58 198.32 375.926 198.42 376.329 198.42ZM376.417 197.768C376.134 197.768 375.898 197.696 375.709 197.552C375.522 197.408 375.382 197.213 375.289 196.968C375.196 196.72 375.149 196.443 375.149 196.136C375.149 195.832 375.194 195.557 375.285 195.312C375.378 195.067 375.52 194.872 375.709 194.728C375.901 194.584 376.144 194.512 376.437 194.512C376.858 194.512 377.17 194.664 377.373 194.968C377.578 195.269 377.681 195.659 377.681 196.136C377.681 196.611 377.58 197.001 377.377 197.308C377.174 197.615 376.854 197.768 376.417 197.768ZM380.666 198.42C381.386 198.42 381.919 198.156 382.266 197.628V198.3H382.898V195.628C382.898 195.457 382.89 195.295 382.874 195.14C382.858 194.983 382.819 194.837 382.758 194.704C382.635 194.421 382.432 194.211 382.15 194.072C381.867 193.931 381.531 193.86 381.142 193.86C380.654 193.86 380.259 193.968 379.958 194.184C379.659 194.4 379.459 194.697 379.358 195.076L380.034 195.28C380.111 195.016 380.248 194.824 380.446 194.704C380.643 194.584 380.872 194.524 381.134 194.524C381.507 194.524 381.775 194.608 381.938 194.776C382.103 194.941 382.19 195.196 382.198 195.54C381.878 195.585 381.542 195.633 381.19 195.684C380.84 195.732 380.53 195.792 380.258 195.864C379.93 195.96 379.671 196.111 379.482 196.316C379.292 196.519 379.198 196.791 379.198 197.132C379.198 197.364 379.252 197.577 379.362 197.772C379.474 197.967 379.638 198.124 379.854 198.244C380.072 198.361 380.343 198.42 380.666 198.42ZM380.774 197.824C380.467 197.824 380.246 197.753 380.11 197.612C379.974 197.468 379.906 197.307 379.906 197.128C379.906 196.925 379.972 196.771 380.106 196.664C380.242 196.555 380.399 196.472 380.578 196.416C380.788 196.357 381.034 196.308 381.314 196.268C381.594 196.228 381.886 196.188 382.19 196.148C382.19 196.247 382.184 196.359 382.174 196.484C382.166 196.609 382.147 196.724 382.118 196.828C382.067 197.095 381.926 197.328 381.694 197.528C381.464 197.725 381.158 197.824 380.774 197.824ZM384.296 200.22H384.988L387.34 193.98H386.616L385.352 197.38L384.004 193.98H383.256L385.008 198.284L384.296 200.22ZM389.632 198.416C390.171 198.416 390.594 198.297 390.9 198.06C391.207 197.823 391.36 197.495 391.36 197.076C391.36 196.852 391.314 196.664 391.22 196.512C391.127 196.357 390.97 196.224 390.748 196.112C390.53 195.997 390.23 195.892 389.848 195.796C389.51 195.711 389.251 195.635 389.072 195.568C388.896 195.501 388.775 195.431 388.708 195.356C388.644 195.281 388.612 195.192 388.612 195.088C388.612 194.904 388.699 194.757 388.872 194.648C389.048 194.539 389.276 194.488 389.556 194.496C389.85 194.504 390.091 194.576 390.28 194.712C390.47 194.845 390.582 195.027 390.616 195.256L391.344 195.124C391.299 194.743 391.112 194.437 390.784 194.208C390.459 193.976 390.05 193.86 389.556 193.86C389.058 193.86 388.656 193.976 388.352 194.208C388.048 194.437 387.896 194.743 387.896 195.124C387.896 195.329 387.942 195.504 388.032 195.648C388.126 195.792 388.282 195.919 388.5 196.028C388.722 196.137 389.023 196.243 389.404 196.344C389.756 196.437 390.019 196.519 390.192 196.588C390.368 196.655 390.484 196.725 390.54 196.8C390.596 196.875 390.624 196.973 390.624 197.096C390.624 197.307 390.539 197.473 390.368 197.596C390.2 197.719 389.97 197.78 389.676 197.78C389.364 197.78 389.103 197.712 388.892 197.576C388.682 197.437 388.547 197.251 388.488 197.016L387.76 197.132C387.835 197.537 388.036 197.853 388.364 198.08C388.695 198.304 389.118 198.416 389.632 198.416Z" fill="black"/>
<path d="M334.127 149.46C334.793 149.46 335.341 149.291 335.771 148.952C336.203 148.611 336.5 148.155 336.663 147.584L335.939 147.392C335.821 147.819 335.611 148.157 335.307 148.408C335.005 148.656 334.612 148.78 334.127 148.78C333.697 148.78 333.339 148.683 333.051 148.488C332.763 148.293 332.547 148.021 332.403 147.672C332.259 147.323 332.188 146.919 332.191 146.46C332.193 145.999 332.267 145.595 332.411 145.248C332.555 144.899 332.769 144.627 333.055 144.432C333.34 144.237 333.697 144.14 334.127 144.14C334.612 144.14 335.005 144.264 335.307 144.512C335.611 144.76 335.821 145.099 335.939 145.528L336.663 145.336C336.5 144.763 336.203 144.307 335.771 143.968C335.341 143.629 334.793 143.46 334.127 143.46C333.553 143.46 333.065 143.587 332.663 143.84C332.263 144.093 331.959 144.445 331.751 144.896C331.543 145.347 331.439 145.868 331.439 146.46C331.439 147.052 331.543 147.573 331.751 148.024C331.959 148.475 332.263 148.827 332.663 149.08C333.065 149.333 333.553 149.46 334.127 149.46ZM337.54 149.34H338.256V147.172C338.256 146.916 338.291 146.669 338.36 146.432C338.429 146.195 338.569 146.001 338.78 145.852C338.929 145.743 339.093 145.679 339.272 145.66C339.453 145.641 339.619 145.651 339.768 145.688V145.02C339.576 144.977 339.365 144.977 339.136 145.02C338.907 145.063 338.709 145.151 338.544 145.284C338.4 145.385 338.277 145.525 338.176 145.704V145.02H337.54V149.34ZM342.318 149.46C342.737 149.46 343.114 149.356 343.45 149.148C343.786 148.937 344.04 148.641 344.21 148.26L343.526 148.024C343.278 148.531 342.865 148.784 342.286 148.784C341.889 148.784 341.577 148.663 341.35 148.42C341.126 148.175 341 147.828 340.97 147.38H344.282C344.304 146.868 344.237 146.427 344.082 146.056C343.93 145.685 343.701 145.4 343.394 145.2C343.09 145 342.721 144.9 342.286 144.9C341.868 144.9 341.502 144.995 341.19 145.184C340.878 145.371 340.636 145.637 340.462 145.984C340.292 146.328 340.206 146.736 340.206 147.208C340.206 147.659 340.293 148.053 340.466 148.392C340.642 148.728 340.889 148.991 341.206 149.18C341.524 149.367 341.894 149.46 342.318 149.46ZM342.31 145.54C343.044 145.54 343.454 145.963 343.542 146.808H340.982C341.033 146.397 341.17 146.084 341.394 145.868C341.618 145.649 341.924 145.54 342.31 145.54ZM346.869 149.46C347.162 149.46 347.421 149.407 347.645 149.3C347.871 149.191 348.063 149.041 348.221 148.852V149.34H348.857V143.58H348.141V145.412C347.986 145.252 347.802 145.127 347.589 145.036C347.375 144.945 347.134 144.9 346.865 144.9C346.465 144.9 346.119 145 345.829 145.2C345.541 145.397 345.319 145.668 345.165 146.012C345.01 146.356 344.933 146.744 344.933 147.176C344.933 147.608 345.01 147.996 345.165 148.34C345.319 148.684 345.541 148.957 345.829 149.16C346.119 149.36 346.466 149.46 346.869 149.46ZM346.957 148.808C346.674 148.808 346.438 148.736 346.249 148.592C346.062 148.448 345.922 148.253 345.829 148.008C345.735 147.76 345.689 147.483 345.689 147.176C345.689 146.872 345.734 146.597 345.825 146.352C345.918 146.107 346.059 145.912 346.249 145.768C346.441 145.624 346.683 145.552 346.977 145.552C347.398 145.552 347.71 145.704 347.913 146.008C348.118 146.309 348.221 146.699 348.221 147.176C348.221 147.651 348.119 148.041 347.917 148.348C347.714 148.655 347.394 148.808 346.957 148.808ZM350.057 144.256H350.769V143.52H350.057V144.256ZM350.057 149.34H350.769V145.02H350.057V149.34ZM354.382 149.34V148.728C354.086 148.773 353.832 148.781 353.622 148.752C353.414 148.723 353.262 148.623 353.166 148.452C353.115 148.361 353.087 148.255 353.082 148.132C353.079 148.007 353.078 147.855 353.078 147.676V145.608H354.382V145.02H353.078V143.82H352.366V145.02H351.49V145.608H352.366V147.708C352.366 147.932 352.368 148.132 352.374 148.308C352.382 148.481 352.428 148.652 352.514 148.82C352.615 149.015 352.763 149.159 352.958 149.252C353.152 149.343 353.374 149.392 353.622 149.4C353.872 149.411 354.126 149.391 354.382 149.34ZM358.088 149.46C358.808 149.46 359.342 149.196 359.688 148.668V149.34H360.32V146.668C360.32 146.497 360.312 146.335 360.296 146.18C360.28 146.023 360.242 145.877 360.18 145.744C360.058 145.461 359.855 145.251 359.572 145.112C359.29 144.971 358.954 144.9 358.564 144.9C358.076 144.9 357.682 145.008 357.38 145.224C357.082 145.44 356.882 145.737 356.78 146.116L357.456 146.32C357.534 146.056 357.671 145.864 357.868 145.744C358.066 145.624 358.295 145.564 358.556 145.564C358.93 145.564 359.198 145.648 359.36 145.816C359.526 145.981 359.612 146.236 359.62 146.58C359.3 146.625 358.964 146.673 358.612 146.724C358.263 146.772 357.952 146.832 357.68 146.904C357.352 147 357.094 147.151 356.904 147.356C356.715 147.559 356.62 147.831 356.62 148.172C356.62 148.404 356.675 148.617 356.784 148.812C356.896 149.007 357.06 149.164 357.276 149.284C357.495 149.401 357.766 149.46 358.088 149.46ZM358.196 148.864C357.89 148.864 357.668 148.793 357.532 148.652C357.396 148.508 357.328 148.347 357.328 148.168C357.328 147.965 357.395 147.811 357.528 147.704C357.664 147.595 357.822 147.512 358 147.456C358.211 147.397 358.456 147.348 358.736 147.308C359.016 147.268 359.308 147.228 359.612 147.188C359.612 147.287 359.607 147.399 359.596 147.524C359.588 147.649 359.57 147.764 359.54 147.868C359.49 148.135 359.348 148.368 359.116 148.568C358.887 148.765 358.58 148.864 358.196 148.864ZM361.356 151.26H362.072V148.94C362.227 149.103 362.41 149.231 362.62 149.324C362.834 149.415 363.075 149.46 363.344 149.46C363.747 149.46 364.092 149.36 364.38 149.16C364.671 148.957 364.894 148.684 365.048 148.34C365.203 147.996 365.28 147.608 365.28 147.176C365.28 146.744 365.203 146.356 365.048 146.012C364.894 145.668 364.671 145.397 364.38 145.2C364.092 145 363.748 144.9 363.348 144.9C363.055 144.9 362.795 144.953 362.568 145.06C362.342 145.167 362.15 145.315 361.992 145.504V145.02H361.356V151.26ZM363.256 148.808C362.822 148.808 362.502 148.655 362.296 148.348C362.094 148.041 361.992 147.651 361.992 147.176C361.992 146.699 362.094 146.309 362.296 146.008C362.502 145.704 362.815 145.552 363.236 145.552C363.53 145.552 363.771 145.624 363.96 145.768C364.152 145.912 364.294 146.107 364.384 146.352C364.478 146.597 364.524 146.872 364.524 147.176C364.524 147.483 364.478 147.76 364.384 148.008C364.291 148.253 364.151 148.448 363.964 148.592C363.778 148.736 363.542 148.808 363.256 148.808ZM366.153 151.26H366.869V148.94C367.024 149.103 367.207 149.231 367.417 149.324C367.631 149.415 367.872 149.46 368.141 149.46C368.544 149.46 368.889 149.36 369.177 149.16C369.468 148.957 369.691 148.684 369.845 148.34C370 147.996 370.077 147.608 370.077 147.176C370.077 146.744 370 146.356 369.845 146.012C369.691 145.668 369.468 145.397 369.177 145.2C368.889 145 368.545 144.9 368.145 144.9C367.852 144.9 367.592 144.953 367.365 145.06C367.139 145.167 366.947 145.315 366.789 145.504V145.02H366.153V151.26ZM368.053 148.808C367.619 148.808 367.299 148.655 367.093 148.348C366.891 148.041 366.789 147.651 366.789 147.176C366.789 146.699 366.891 146.309 367.093 146.008C367.299 145.704 367.612 145.552 368.033 145.552C368.327 145.552 368.568 145.624 368.757 145.768C368.949 145.912 369.091 146.107 369.181 146.352C369.275 146.597 369.321 146.872 369.321 147.176C369.321 147.483 369.275 147.76 369.181 148.008C369.088 148.253 368.948 148.448 368.761 148.592C368.575 148.736 368.339 148.808 368.053 148.808ZM370.954 149.34H371.67V147.172C371.67 146.916 371.705 146.669 371.774 146.432C371.843 146.195 371.983 146.001 372.194 145.852C372.343 145.743 372.507 145.679 372.686 145.66C372.867 145.641 373.033 145.651 373.182 145.688V145.02C372.99 144.977 372.779 144.977 372.55 145.02C372.321 145.063 372.123 145.151 371.958 145.284C371.814 145.385 371.691 145.525 371.59 145.704V145.02H370.954V149.34ZM375.7 149.46C376.13 149.46 376.499 149.364 376.808 149.172C377.12 148.98 377.36 148.712 377.528 148.368C377.699 148.024 377.784 147.627 377.784 147.176C377.784 146.731 377.7 146.337 377.532 145.996C377.367 145.652 377.128 145.384 376.816 145.192C376.504 144.997 376.132 144.9 375.7 144.9C375.279 144.9 374.912 144.996 374.6 145.188C374.288 145.377 374.047 145.643 373.876 145.984C373.706 146.325 373.62 146.723 373.62 147.176C373.62 147.621 373.703 148.016 373.868 148.36C374.036 148.704 374.276 148.973 374.588 149.168C374.9 149.363 375.271 149.46 375.7 149.46ZM375.7 148.784C375.266 148.784 374.936 148.639 374.712 148.348C374.488 148.055 374.376 147.664 374.376 147.176C374.376 146.704 374.484 146.32 374.7 146.024C374.916 145.725 375.25 145.576 375.7 145.576C376.143 145.576 376.475 145.721 376.696 146.012C376.918 146.303 377.028 146.691 377.028 147.176C377.028 147.651 376.918 148.037 376.696 148.336C376.478 148.635 376.146 148.784 375.7 148.784ZM379.677 149.34H380.405L381.973 145.02H381.249L380.041 148.432L378.829 145.02H378.109L379.677 149.34ZM383.682 149.46C384.402 149.46 384.935 149.196 385.282 148.668V149.34H385.914V146.668C385.914 146.497 385.906 146.335 385.89 146.18C385.874 146.023 385.835 145.877 385.774 145.744C385.651 145.461 385.449 145.251 385.166 145.112C384.883 144.971 384.547 144.9 384.158 144.9C383.67 144.9 383.275 145.008 382.974 145.224C382.675 145.44 382.475 145.737 382.374 146.116L383.05 146.32C383.127 146.056 383.265 145.864 383.462 145.744C383.659 145.624 383.889 145.564 384.15 145.564C384.523 145.564 384.791 145.648 384.954 145.816C385.119 145.981 385.206 146.236 385.214 146.58C384.894 146.625 384.558 146.673 384.206 146.724C383.857 146.772 383.546 146.832 383.274 146.904C382.946 147 382.687 147.151 382.498 147.356C382.309 147.559 382.214 147.831 382.214 148.172C382.214 148.404 382.269 148.617 382.378 148.812C382.49 149.007 382.654 149.164 382.87 149.284C383.089 149.401 383.359 149.46 383.682 149.46ZM383.79 148.864C383.483 148.864 383.262 148.793 383.126 148.652C382.99 148.508 382.922 148.347 382.922 148.168C382.922 147.965 382.989 147.811 383.122 147.704C383.258 147.595 383.415 147.512 383.594 147.456C383.805 147.397 384.05 147.348 384.33 147.308C384.61 147.268 384.902 147.228 385.206 147.188C385.206 147.287 385.201 147.399 385.19 147.524C385.182 147.649 385.163 147.764 385.134 147.868C385.083 148.135 384.942 148.368 384.71 148.568C384.481 148.765 384.174 148.864 383.79 148.864ZM387.034 149.34H387.746V143.46H387.034V149.34Z" fill="#4D52FF"/>
<path d="M77.4459 168.98C74.1885 168.98 71.5447 171.265 71.5447 174.08C71.5447 176.895 74.1885 179.18 77.4459 179.18C80.7034 179.18 83.3472 176.895 83.3472 174.08C83.3472 171.265 80.7034 168.98 77.4459 168.98ZM77.4459 163.88C70.931 163.88 65.6435 168.45 65.6435 174.08C65.6435 179.71 70.931 184.28 77.4459 184.28C83.9609 184.28 89.2484 179.71 89.2484 174.08C89.2484 168.45 83.9609 163.88 77.4459 163.88ZM77.4459 182.24C72.2293 182.24 68.004 178.588 68.004 174.08C68.004 169.572 72.2293 165.92 77.4459 165.92C82.6626 165.92 86.8879 169.572 86.8879 174.08C86.8879 178.588 82.6626 182.24 77.4459 182.24Z" fill="#4D49FF"/>
<rect x="109.931" y="68" width="100.649" height="45" rx="4" fill="#4D49FF"/>
<path d="M119.305 76.765V80.527C118.945 80.703 118.513 80.8423 118.007 80.945C117.501 81.0477 116.984 81.099 116.456 81.099C115.649 81.099 114.949 80.9377 114.355 80.615C113.761 80.2923 113.306 79.8303 112.991 79.229C112.675 78.6277 112.518 77.909 112.518 77.073C112.518 76.2517 112.675 75.5403 112.991 74.939C113.306 74.3377 113.753 73.8757 114.333 73.553C114.919 73.2303 115.605 73.069 116.39 73.069C116.94 73.069 117.453 73.1497 117.93 73.311C118.414 73.4723 118.817 73.6997 119.14 73.993L118.656 75.027C118.289 74.741 117.93 74.5357 117.578 74.411C117.226 74.2863 116.841 74.224 116.423 74.224C115.616 74.224 115.004 74.466 114.586 74.95C114.175 75.434 113.97 76.1417 113.97 77.073C113.97 78.0337 114.182 78.7597 114.608 79.251C115.033 79.735 115.667 79.977 116.511 79.977C117.024 79.977 117.53 79.9073 118.029 79.768V77.788H116.335V76.765H119.305ZM125.863 75.445V81H124.521V80.142C124.345 80.45 124.111 80.6847 123.817 80.846C123.524 81.0073 123.187 81.088 122.805 81.088C121.449 81.088 120.77 80.3253 120.77 78.8V75.445H122.134V78.811C122.134 79.2143 122.215 79.5113 122.376 79.702C122.545 79.8927 122.802 79.988 123.146 79.988C123.55 79.988 123.872 79.856 124.114 79.592C124.356 79.328 124.477 78.976 124.477 78.536V75.445H125.863ZM132.669 75.445V81H131.316V80.109C131.147 80.417 130.905 80.659 130.59 80.835C130.275 81.0037 129.915 81.088 129.512 81.088C129.028 81.088 128.599 80.9707 128.225 80.736C127.851 80.5013 127.561 80.1677 127.356 79.735C127.151 79.3023 127.048 78.8 127.048 78.228C127.048 77.656 127.151 77.15 127.356 76.71C127.569 76.2627 127.862 75.918 128.236 75.676C128.61 75.4267 129.035 75.302 129.512 75.302C129.915 75.302 130.275 75.39 130.59 75.566C130.905 75.7347 131.147 75.973 131.316 76.281V75.445H132.669ZM129.886 80.01C130.341 80.01 130.693 79.8523 130.942 79.537C131.191 79.2217 131.316 78.778 131.316 78.206C131.316 77.6193 131.191 77.1683 130.942 76.853C130.693 76.5377 130.337 76.38 129.875 76.38C129.42 76.38 129.065 76.545 128.808 76.875C128.559 77.1977 128.434 77.6487 128.434 78.228C128.434 78.8 128.559 79.24 128.808 79.548C129.065 79.856 129.424 80.01 129.886 80.01ZM139.425 75.456L136.994 81H135.795L133.397 75.456H134.838L136.433 79.438L138.061 75.456H139.425ZM145.356 75.445V81H144.003V80.109C143.834 80.417 143.592 80.659 143.277 80.835C142.961 81.0037 142.602 81.088 142.199 81.088C141.715 81.088 141.286 80.9707 140.912 80.736C140.538 80.5013 140.248 80.1677 140.043 79.735C139.837 79.3023 139.735 78.8 139.735 78.228C139.735 77.656 139.837 77.15 140.043 76.71C140.255 76.2627 140.549 75.918 140.923 75.676C141.297 75.4267 141.722 75.302 142.199 75.302C142.602 75.302 142.961 75.39 143.277 75.566C143.592 75.7347 143.834 75.973 144.003 76.281V75.445H145.356ZM142.573 80.01C143.027 80.01 143.379 79.8523 143.629 79.537C143.878 79.2217 144.003 78.778 144.003 78.206C144.003 77.6193 143.878 77.1683 143.629 76.853C143.379 76.5377 143.024 76.38 142.562 76.38C142.107 76.38 141.751 76.545 141.495 76.875C141.245 77.1977 141.121 77.6487 141.121 78.228C141.121 78.8 141.245 79.24 141.495 79.548C141.751 79.856 142.111 80.01 142.573 80.01Z" fill="white"/>
<ellipse cx="150.29" cy="81" rx="3.48785" ry="3" fill="#FDCB05" stroke="#FDCB05"/>
<rect x="221.045" y="68.5" width="96.6597" height="44" rx="3.5" fill="white" stroke="#B2BCCA"/>
<path fill-rule="evenodd" clip-rule="evenodd" d="M241.472 106.841C239.783 108.265 237.593 109.125 235.199 109.125C229.858 109.125 225.528 104.844 225.528 99.5625C225.528 94.2813 229.858 90 235.199 90C237.593 90 239.783 90.8599 241.472 92.2844C243.161 90.8599 245.352 90 247.745 90C253.087 90 257.417 94.2813 257.417 99.5625C257.417 104.844 253.087 109.125 247.745 109.125C245.352 109.125 243.161 108.265 241.472 106.841Z" fill="#ED0006" fill-opacity="0.2"/>
<path fill-rule="evenodd" clip-rule="evenodd" d="M241.472 106.841C243.552 105.087 244.87 102.477 244.87 99.5625C244.87 96.6481 243.552 94.0383 241.472 92.2843C243.161 90.8599 245.352 90 247.745 90C253.087 90 257.417 94.2813 257.417 99.5625C257.417 104.844 253.087 109.125 247.745 109.125C245.352 109.125 243.161 108.265 241.472 106.841Z" fill="#F9A000" fill-opacity="0.2"/>
<ellipse cx="247.745" cy="99.5625" rx="9.6712" ry="9.5625" fill="#F9A000" fill-opacity="0.2"/>
<ellipse cx="247.745" cy="99.5625" rx="9.6712" ry="9.5625" fill="#F9A000" fill-opacity="0.2"/>
<path fill-rule="evenodd" clip-rule="evenodd" d="M241.473 106.841C239.393 105.087 238.074 102.477 238.074 99.5626C238.074 96.6482 239.393 94.0384 241.472 92.2844C243.552 94.0384 244.871 96.6483 244.871 99.5628C244.871 102.477 243.552 105.087 241.473 106.841Z" fill="#FD6020" fill-opacity="0.2"/>
<path d="M226.529 75.744H230.546C231.542 75.744 232.318 75.9867 232.873 76.472C233.427 76.9487 233.705 77.603 233.705 78.435C233.705 79.267 233.423 79.9257 232.86 80.411C232.305 80.8963 231.534 81.139 230.546 81.139H228.206V85H226.529V75.744ZM230.351 79.839C230.931 79.839 231.369 79.722 231.664 79.488C231.967 79.2453 232.119 78.8987 232.119 78.448C232.119 77.9887 231.971 77.642 231.677 77.408C231.382 77.1653 230.94 77.044 230.351 77.044H228.206V79.839H230.351ZM241.108 78.435V85H239.509V83.947C239.309 84.311 239.023 84.597 238.651 84.805C238.278 85.0043 237.853 85.104 237.377 85.104C236.805 85.104 236.298 84.9653 235.856 84.688C235.414 84.4107 235.071 84.0163 234.829 83.505C234.586 82.9937 234.465 82.4 234.465 81.724C234.465 81.048 234.586 80.45 234.829 79.93C235.08 79.4013 235.427 78.994 235.869 78.708C236.311 78.4133 236.813 78.266 237.377 78.266C237.853 78.266 238.278 78.37 238.651 78.578C239.023 78.7773 239.309 79.059 239.509 79.423V78.435H241.108ZM237.819 83.83C238.356 83.83 238.772 83.6437 239.067 83.271C239.361 82.8983 239.509 82.374 239.509 81.698C239.509 81.0047 239.361 80.4717 239.067 80.099C238.772 79.7263 238.352 79.54 237.806 79.54C237.268 79.54 236.848 79.735 236.545 80.125C236.25 80.5063 236.103 81.0393 236.103 81.724C236.103 82.4 236.25 82.92 236.545 83.284C236.848 83.648 237.273 83.83 237.819 83.83ZM249.092 78.435L246.037 85.442C245.69 86.2567 245.248 86.8503 244.711 87.223C244.173 87.5957 243.51 87.8427 242.722 87.964L242.358 86.716C242.973 86.5773 243.432 86.3997 243.736 86.183C244.048 85.975 244.299 85.663 244.49 85.247L244.698 84.766L241.968 78.435H243.671L245.556 83.154L247.48 78.435H249.092ZM263.956 78.435L261.382 85H259.965L258.34 80.697L256.754 85H255.324L252.75 78.435H254.414L256.104 83.063L257.807 78.435H258.977L260.68 83.102L262.37 78.435H263.956ZM264.98 78.435H266.592V85H264.98V78.435ZM266.683 75.458V77.057H264.876V75.458H266.683ZM270.437 79.657V82.595C270.437 83.3663 270.796 83.752 271.516 83.752C271.715 83.752 271.932 83.7173 272.166 83.648V84.935C271.88 85.039 271.533 85.091 271.126 85.091C270.38 85.091 269.808 84.883 269.41 84.467C269.011 84.051 268.812 83.453 268.812 82.673V79.657H267.551V78.435H268.812V76.836L270.437 76.29V78.435H272.179V79.657H270.437ZM277.053 78.266C278.621 78.266 279.406 79.1673 279.406 80.97V85H277.781V81.048C277.781 80.528 277.681 80.151 277.482 79.917C277.282 79.6743 276.975 79.553 276.559 79.553C276.065 79.553 275.666 79.7133 275.363 80.034C275.059 80.346 274.908 80.762 274.908 81.282V85H273.296V75.432H274.908V79.384C275.133 79.0287 275.432 78.7557 275.805 78.565C276.177 78.3657 276.593 78.266 277.053 78.266ZM287.673 85.104C286.988 85.104 286.395 84.9653 285.892 84.688C285.389 84.4107 285.004 84.0207 284.735 83.518C284.466 83.0067 284.332 82.4087 284.332 81.724C284.332 81.0393 284.471 80.437 284.748 79.917C285.034 79.397 285.433 78.994 285.944 78.708C286.464 78.4133 287.062 78.266 287.738 78.266C288.206 78.266 288.657 78.3397 289.09 78.487C289.532 78.6343 289.883 78.838 290.143 79.098L289.688 80.242C289.411 80.0167 289.116 79.8477 288.804 79.735C288.492 79.6137 288.184 79.553 287.881 79.553C287.292 79.553 286.832 79.7393 286.503 80.112C286.174 80.476 286.009 81.0047 286.009 81.698C286.009 82.3913 286.169 82.92 286.49 83.284C286.819 83.648 287.283 83.83 287.881 83.83C288.184 83.83 288.492 83.7693 288.804 83.648C289.116 83.5267 289.411 83.3533 289.688 83.128L290.143 84.272C289.866 84.532 289.506 84.7357 289.064 84.883C288.622 85.0303 288.158 85.104 287.673 85.104ZM297.513 78.435V85H295.914V83.947C295.715 84.311 295.429 84.597 295.056 84.805C294.683 85.0043 294.259 85.104 293.782 85.104C293.21 85.104 292.703 84.9653 292.261 84.688C291.819 84.4107 291.477 84.0163 291.234 83.505C290.991 82.9937 290.87 82.4 290.87 81.724C290.87 81.048 290.991 80.45 291.234 79.93C291.485 79.4013 291.832 78.994 292.274 78.708C292.716 78.4133 293.219 78.266 293.782 78.266C294.259 78.266 294.683 78.37 295.056 78.578C295.429 78.7773 295.715 79.059 295.914 79.423V78.435H297.513ZM294.224 83.83C294.761 83.83 295.177 83.6437 295.472 83.271C295.767 82.8983 295.914 82.374 295.914 81.698C295.914 81.0047 295.767 80.4717 295.472 80.099C295.177 79.7263 294.757 79.54 294.211 79.54C293.674 79.54 293.253 79.735 292.95 80.125C292.655 80.5063 292.508 81.0393 292.508 81.724C292.508 82.4 292.655 82.92 292.95 83.284C293.253 83.648 293.678 83.83 294.224 83.83ZM302.819 78.279C303.07 78.279 303.287 78.3137 303.469 78.383L303.456 79.865C303.179 79.7523 302.893 79.696 302.598 79.696C302.043 79.696 301.619 79.8563 301.324 80.177C301.038 80.4977 300.895 80.9223 300.895 81.451V85H299.283V80.294C299.283 79.6007 299.248 78.981 299.179 78.435H300.7L300.83 79.592C300.995 79.1673 301.255 78.8423 301.61 78.617C301.965 78.3917 302.368 78.279 302.819 78.279ZM310.526 75.432V85H308.927V83.947C308.727 84.311 308.441 84.597 308.069 84.805C307.696 85.0043 307.271 85.104 306.795 85.104C306.231 85.104 305.729 84.961 305.287 84.675C304.845 84.389 304.498 83.986 304.247 83.466C304.004 82.9373 303.883 82.335 303.883 81.659C303.883 80.983 304.004 80.3893 304.247 79.878C304.489 79.3667 304.832 78.9723 305.274 78.695C305.716 78.409 306.223 78.266 306.795 78.266C307.263 78.266 307.679 78.3657 308.043 78.565C308.415 78.7557 308.701 79.0287 308.901 79.384V75.432H310.526ZM307.224 83.83C307.761 83.83 308.177 83.6437 308.472 83.271C308.775 82.8983 308.927 82.3697 308.927 81.685C308.927 81.0003 308.779 80.4717 308.485 80.099C308.19 79.7263 307.774 79.54 307.237 79.54C306.691 79.54 306.266 79.7263 305.963 80.099C305.668 80.463 305.521 80.983 305.521 81.659C305.521 82.3437 305.668 82.8767 305.963 83.258C306.266 83.6393 306.686 83.83 307.224 83.83Z" fill="black" fill-opacity="0.2"/>
<path d="M162.135 76.44H163.68C164.063 76.44 164.362 76.5333 164.575 76.72C164.788 76.9033 164.895 77.155 164.895 77.475C164.895 77.795 164.787 78.0483 164.57 78.235C164.357 78.4217 164.06 78.515 163.68 78.515H162.78V80H162.135V76.44ZM163.605 78.015C163.828 78.015 163.997 77.97 164.11 77.88C164.227 77.7867 164.285 77.6533 164.285 77.48C164.285 77.3033 164.228 77.17 164.115 77.08C164.002 76.9867 163.832 76.94 163.605 76.94H162.78V78.015H163.605ZM167.742 77.475V80H167.127V79.595C167.051 79.735 166.941 79.845 166.797 79.925C166.654 80.0017 166.491 80.04 166.307 80.04C166.087 80.04 165.892 79.9867 165.722 79.88C165.552 79.7733 165.421 79.6217 165.327 79.425C165.234 79.2283 165.187 79 165.187 78.74C165.187 78.48 165.234 78.25 165.327 78.05C165.424 77.8467 165.557 77.69 165.727 77.58C165.897 77.4667 166.091 77.41 166.307 77.41C166.491 77.41 166.654 77.45 166.797 77.53C166.941 77.6067 167.051 77.715 167.127 77.855V77.475H167.742ZM166.477 79.55C166.684 79.55 166.844 79.4783 166.957 79.335C167.071 79.1917 167.127 78.99 167.127 78.73C167.127 78.4633 167.071 78.2583 166.957 78.115C166.844 77.9717 166.682 77.9 166.472 77.9C166.266 77.9 166.104 77.975 165.987 78.125C165.874 78.2717 165.817 78.4767 165.817 78.74C165.817 79 165.874 79.2 165.987 79.34C166.104 79.48 166.267 79.55 166.477 79.55ZM170.813 77.475L169.638 80.17C169.505 80.4833 169.335 80.7117 169.128 80.855C168.921 80.9983 168.666 81.0933 168.363 81.14L168.223 80.66C168.46 80.6067 168.636 80.5383 168.753 80.455C168.873 80.375 168.97 80.255 169.043 80.095L169.123 79.91L168.073 77.475H168.728L169.453 79.29L170.193 77.475H170.813ZM176.53 77.475L175.54 80H174.995L174.37 78.345L173.76 80H173.21L172.22 77.475H172.86L173.51 79.255L174.165 77.475H174.615L175.27 79.27L175.92 77.475H176.53ZM176.924 77.475H177.544V80H176.924V77.475ZM177.579 76.33V76.945H176.884V76.33H177.579ZM179.023 77.945V79.075C179.023 79.3717 179.161 79.52 179.438 79.52C179.514 79.52 179.598 79.5067 179.688 79.48V79.975C179.578 80.015 179.444 80.035 179.288 80.035C179.001 80.035 178.781 79.955 178.628 79.795C178.474 79.635 178.398 79.405 178.398 79.105V77.945H177.913V77.475H178.398V76.86L179.023 76.65V77.475H179.693V77.945H179.023ZM181.567 77.41C182.171 77.41 182.472 77.7567 182.472 78.45V80H181.847V78.48C181.847 78.28 181.809 78.135 181.732 78.045C181.656 77.9517 181.537 77.905 181.377 77.905C181.187 77.905 181.034 77.9667 180.917 78.09C180.801 78.21 180.742 78.37 180.742 78.57V80H180.122V76.32H180.742V77.84C180.829 77.7033 180.944 77.5983 181.087 77.525C181.231 77.4483 181.391 77.41 181.567 77.41ZM185.652 80.04C185.395 80.04 185.169 79.9867 184.972 79.88C184.779 79.7733 184.629 79.6217 184.522 79.425C184.419 79.225 184.367 78.9917 184.367 78.725C184.367 78.4583 184.419 78.2267 184.522 78.03C184.629 77.83 184.779 77.6767 184.972 77.57C185.169 77.4633 185.395 77.41 185.652 77.41C185.905 77.41 186.129 77.4633 186.322 77.57C186.515 77.6767 186.664 77.83 186.767 78.03C186.874 78.2267 186.927 78.4583 186.927 78.725C186.927 78.9917 186.874 79.225 186.767 79.425C186.664 79.6217 186.515 79.7733 186.322 79.88C186.129 79.9867 185.905 80.04 185.652 80.04ZM185.647 79.55C185.86 79.55 186.022 79.4817 186.132 79.345C186.245 79.205 186.302 78.9983 186.302 78.725C186.302 78.455 186.245 78.25 186.132 78.11C186.019 77.9667 185.859 77.895 185.652 77.895C185.442 77.895 185.28 77.9667 185.167 78.11C185.054 78.25 184.997 78.455 184.997 78.725C184.997 78.9983 185.052 79.205 185.162 79.345C185.275 79.4817 185.437 79.55 185.647 79.55ZM189.812 77.48L188.707 80H188.162L187.072 77.48H187.727L188.452 79.29L189.192 77.48H189.812ZM192.303 78.77H190.563C190.576 79.04 190.643 79.24 190.763 79.37C190.886 79.4967 191.068 79.56 191.308 79.56C191.585 79.56 191.841 79.47 192.078 79.29L192.258 79.72C192.138 79.8167 191.99 79.895 191.813 79.955C191.64 80.0117 191.463 80.04 191.283 80.04C190.87 80.04 190.545 79.9233 190.308 79.69C190.071 79.4567 189.953 79.1367 189.953 78.73C189.953 78.4733 190.005 78.245 190.108 78.045C190.211 77.845 190.356 77.69 190.543 77.58C190.73 77.4667 190.941 77.41 191.178 77.41C191.525 77.41 191.798 77.5233 191.998 77.75C192.201 77.9733 192.303 78.2817 192.303 78.675V78.77ZM191.193 77.86C191.026 77.86 190.89 77.91 190.783 78.01C190.68 78.1067 190.613 78.2483 190.583 78.435H191.758C191.738 78.245 191.68 78.1017 191.583 78.005C191.49 77.9083 191.36 77.86 191.193 77.86ZM194.192 77.415C194.289 77.415 194.372 77.4283 194.442 77.455L194.437 78.025C194.331 77.9817 194.221 77.96 194.107 77.96C193.894 77.96 193.731 78.0217 193.617 78.145C193.507 78.2683 193.452 78.4317 193.452 78.635V80H192.832V78.19C192.832 77.9233 192.819 77.685 192.792 77.475H193.377L193.427 77.92C193.491 77.7567 193.591 77.6317 193.727 77.545C193.864 77.4583 194.019 77.415 194.192 77.415ZM195.815 77.945V79.075C195.815 79.3717 195.953 79.52 196.23 79.52C196.306 79.52 196.39 79.5067 196.48 79.48V79.975C196.37 80.015 196.236 80.035 196.08 80.035C195.793 80.035 195.573 79.955 195.42 79.795C195.266 79.635 195.19 79.405 195.19 79.105V77.945H194.705V77.475H195.19V76.86L195.815 76.65V77.475H196.485V77.945H195.815ZM196.914 77.475H197.534V80H196.914V77.475ZM197.569 76.33V76.945H196.874V76.33H197.569ZM201.198 77.41C201.485 77.41 201.698 77.4967 201.838 77.67C201.978 77.84 202.048 78.1 202.048 78.45V80H201.423V78.47C201.423 78.27 201.39 78.1267 201.323 78.04C201.26 77.95 201.153 77.905 201.003 77.905C200.83 77.905 200.693 77.9667 200.593 78.09C200.496 78.21 200.448 78.3767 200.448 78.59V80H199.823V78.47C199.823 78.2733 199.788 78.13 199.718 78.04C199.651 77.95 199.545 77.905 199.398 77.905C199.225 77.905 199.088 77.9667 198.988 78.09C198.888 78.21 198.838 78.3767 198.838 78.59V80H198.218V78.19C198.218 77.9233 198.205 77.685 198.178 77.475H198.763L198.808 77.875C198.881 77.725 198.986 77.61 199.123 77.53C199.263 77.45 199.423 77.41 199.603 77.41C199.99 77.41 200.241 77.57 200.358 77.89C200.438 77.74 200.551 77.6233 200.698 77.54C200.848 77.4533 201.015 77.41 201.198 77.41ZM204.925 78.77H203.185C203.198 79.04 203.265 79.24 203.385 79.37C203.508 79.4967 203.69 79.56 203.93 79.56C204.207 79.56 204.463 79.47 204.7 79.29L204.88 79.72C204.76 79.8167 204.612 79.895 204.435 79.955C204.262 80.0117 204.085 80.04 203.905 80.04C203.492 80.04 203.167 79.9233 202.93 79.69C202.693 79.4567 202.575 79.1367 202.575 78.73C202.575 78.4733 202.627 78.245 202.73 78.045C202.833 77.845 202.978 77.69 203.165 77.58C203.352 77.4667 203.563 77.41 203.8 77.41C204.147 77.41 204.42 77.5233 204.62 77.75C204.823 77.9733 204.925 78.2817 204.925 78.675V78.77ZM203.815 77.86C203.648 77.86 203.512 77.91 203.405 78.01C203.302 78.1067 203.235 78.2483 203.205 78.435H204.38C204.36 78.245 204.302 78.1017 204.205 78.005C204.112 77.9083 203.982 77.86 203.815 77.86Z" fill="white"/>
<path d="M127.188 97.37V98H124.554V97.37H125.49V94.616L124.62 95.138V94.448L125.808 93.728H126.258V97.37H127.188ZM130.936 97.166H130.33V98H129.574V97.166H127.714V96.59L129.712 93.728H130.33V96.56H130.936V97.166ZM129.574 96.56V94.934L128.446 96.56H129.574ZM136.03 93.584V98H135.292V97.514C135.2 97.682 135.068 97.814 134.896 97.91C134.724 98.002 134.528 98.048 134.308 98.048C134.048 98.048 133.816 97.982 133.612 97.85C133.408 97.718 133.248 97.532 133.132 97.292C133.02 97.048 132.964 96.77 132.964 96.458C132.964 96.146 133.02 95.872 133.132 95.636C133.244 95.4 133.402 95.218 133.606 95.09C133.81 94.958 134.044 94.892 134.308 94.892C134.524 94.892 134.716 94.938 134.884 95.03C135.056 95.118 135.188 95.244 135.28 95.408V93.584H136.03ZM134.506 97.46C134.754 97.46 134.946 97.374 135.082 97.202C135.222 97.03 135.292 96.786 135.292 96.47C135.292 96.154 135.224 95.91 135.088 95.738C134.952 95.566 134.76 95.48 134.512 95.48C134.26 95.48 134.064 95.566 133.924 95.738C133.788 95.906 133.72 96.146 133.72 96.458C133.72 96.774 133.788 97.02 133.924 97.196C134.064 97.372 134.258 97.46 134.506 97.46ZM139.745 94.97V98H139.007V97.514C138.915 97.682 138.783 97.814 138.611 97.91C138.439 98.002 138.243 98.048 138.023 98.048C137.759 98.048 137.525 97.984 137.321 97.856C137.117 97.728 136.959 97.546 136.847 97.31C136.735 97.074 136.679 96.8 136.679 96.488C136.679 96.176 136.735 95.9 136.847 95.66C136.963 95.416 137.123 95.228 137.327 95.096C137.531 94.96 137.763 94.892 138.023 94.892C138.243 94.892 138.439 94.94 138.611 95.036C138.783 95.128 138.915 95.258 139.007 95.426V94.97H139.745ZM138.227 97.46C138.475 97.46 138.667 97.374 138.803 97.202C138.939 97.03 139.007 96.788 139.007 96.476C139.007 96.156 138.939 95.91 138.803 95.738C138.667 95.566 138.473 95.48 138.221 95.48C137.973 95.48 137.779 95.57 137.639 95.75C137.503 95.926 137.435 96.172 137.435 96.488C137.435 96.8 137.503 97.04 137.639 97.208C137.779 97.376 137.975 97.46 138.227 97.46ZM143.429 94.97L142.019 98.204C141.859 98.58 141.655 98.854 141.407 99.026C141.159 99.198 140.853 99.312 140.489 99.368L140.321 98.792C140.605 98.728 140.817 98.646 140.957 98.546C141.101 98.45 141.217 98.306 141.305 98.114L141.401 97.892L140.141 94.97H140.927L141.797 97.148L142.685 94.97H143.429ZM144.888 98.048C144.34 98.048 143.904 97.92 143.58 97.664L143.79 97.136C144.114 97.376 144.484 97.496 144.9 97.496C145.08 97.496 145.218 97.466 145.314 97.406C145.414 97.346 145.464 97.262 145.464 97.154C145.464 97.062 145.43 96.99 145.362 96.938C145.294 96.882 145.178 96.834 145.014 96.794L144.51 96.68C143.958 96.56 143.682 96.278 143.682 95.834C143.682 95.65 143.734 95.488 143.838 95.348C143.942 95.204 144.088 95.092 144.276 95.012C144.464 94.932 144.682 94.892 144.93 94.892C145.146 94.892 145.354 94.926 145.554 94.994C145.754 95.058 145.93 95.152 146.082 95.276L145.86 95.786C145.556 95.562 145.244 95.45 144.924 95.45C144.752 95.45 144.618 95.482 144.522 95.546C144.426 95.61 144.378 95.698 144.378 95.81C144.378 95.898 144.406 95.968 144.462 96.02C144.522 96.072 144.622 96.116 144.762 96.152L145.278 96.266C145.578 96.334 145.796 96.44 145.932 96.584C146.072 96.724 146.142 96.908 146.142 97.136C146.142 97.416 146.03 97.638 145.806 97.802C145.582 97.966 145.276 98.048 144.888 98.048ZM149.193 97.16V97.712C149.193 97.924 149.157 98.116 149.085 98.288C149.013 98.46 148.891 98.632 148.719 98.804L148.413 98.558C148.601 98.358 148.709 98.172 148.737 98H148.353V97.16H149.193ZM151.988 95.804C152.24 95.872 152.432 95.996 152.564 96.176C152.7 96.356 152.768 96.578 152.768 96.842C152.768 97.214 152.63 97.508 152.354 97.724C152.082 97.94 151.714 98.048 151.25 98.048C150.962 98.048 150.684 98.004 150.416 97.916C150.152 97.828 149.934 97.706 149.762 97.55L150.026 96.986C150.406 97.282 150.804 97.43 151.22 97.43C151.492 97.43 151.694 97.376 151.826 97.268C151.962 97.16 152.03 96.996 152.03 96.776C152.03 96.56 151.962 96.402 151.826 96.302C151.69 96.198 151.48 96.146 151.196 96.146H150.632V95.528H151.094C151.646 95.528 151.922 95.318 151.922 94.898C151.922 94.702 151.862 94.552 151.742 94.448C151.622 94.344 151.454 94.292 151.238 94.292C150.854 94.292 150.47 94.44 150.086 94.736L149.828 94.172C150 94.02 150.216 93.9 150.476 93.812C150.74 93.72 151.01 93.674 151.286 93.674C151.706 93.674 152.04 93.778 152.288 93.986C152.54 94.19 152.666 94.464 152.666 94.808C152.662 95.044 152.6 95.25 152.48 95.426C152.364 95.598 152.2 95.724 151.988 95.804ZM154.926 98.054C154.418 98.054 154.03 97.868 153.762 97.496C153.498 97.12 153.366 96.574 153.366 95.858C153.366 95.154 153.498 94.616 153.762 94.244C154.03 93.872 154.418 93.686 154.926 93.686C155.434 93.686 155.82 93.872 156.084 94.244C156.352 94.612 156.486 95.15 156.486 95.858C156.486 96.57 156.352 97.114 156.084 97.49C155.82 97.866 155.434 98.054 154.926 98.054ZM154.926 97.448C155.202 97.448 155.402 97.322 155.526 97.07C155.654 96.814 155.718 96.41 155.718 95.858C155.718 95.314 155.654 94.918 155.526 94.67C155.402 94.418 155.202 94.292 154.926 94.292C154.65 94.292 154.448 94.418 154.32 94.67C154.196 94.918 154.134 95.314 154.134 95.858C154.134 96.41 154.196 96.814 154.32 97.07C154.448 97.322 154.65 97.448 154.926 97.448ZM160.03 93.584V98H159.292V97.514C159.2 97.682 159.068 97.814 158.896 97.91C158.724 98.002 158.528 98.048 158.308 98.048C158.048 98.048 157.816 97.982 157.612 97.85C157.408 97.718 157.248 97.532 157.132 97.292C157.02 97.048 156.964 96.77 156.964 96.458C156.964 96.146 157.02 95.872 157.132 95.636C157.244 95.4 157.402 95.218 157.606 95.09C157.81 94.958 158.044 94.892 158.308 94.892C158.524 94.892 158.716 94.938 158.884 95.03C159.056 95.118 159.188 95.244 159.28 95.408V93.584H160.03ZM158.506 97.46C158.754 97.46 158.946 97.374 159.082 97.202C159.222 97.03 159.292 96.786 159.292 96.47C159.292 96.154 159.224 95.91 159.088 95.738C158.952 95.566 158.76 95.48 158.512 95.48C158.26 95.48 158.064 95.566 157.924 95.738C157.788 95.906 157.72 96.146 157.72 96.458C157.72 96.774 157.788 97.02 157.924 97.196C158.064 97.372 158.258 97.46 158.506 97.46ZM163.745 94.97V98H163.007V97.514C162.915 97.682 162.783 97.814 162.611 97.91C162.439 98.002 162.243 98.048 162.023 98.048C161.759 98.048 161.525 97.984 161.321 97.856C161.117 97.728 160.959 97.546 160.847 97.31C160.735 97.074 160.679 96.8 160.679 96.488C160.679 96.176 160.735 95.9 160.847 95.66C160.963 95.416 161.123 95.228 161.327 95.096C161.531 94.96 161.763 94.892 162.023 94.892C162.243 94.892 162.439 94.94 162.611 95.036C162.783 95.128 162.915 95.258 163.007 95.426V94.97H163.745ZM162.227 97.46C162.475 97.46 162.667 97.374 162.803 97.202C162.939 97.03 163.007 96.788 163.007 96.476C163.007 96.156 162.939 95.91 162.803 95.738C162.667 95.566 162.473 95.48 162.221 95.48C161.973 95.48 161.779 95.57 161.639 95.75C161.503 95.926 161.435 96.172 161.435 96.488C161.435 96.8 161.503 97.04 161.639 97.208C161.779 97.376 161.975 97.46 162.227 97.46ZM167.429 94.97L166.019 98.204C165.859 98.58 165.655 98.854 165.407 99.026C165.159 99.198 164.853 99.312 164.489 99.368L164.321 98.792C164.605 98.728 164.817 98.646 164.957 98.546C165.101 98.45 165.217 98.306 165.305 98.114L165.401 97.892L164.141 94.97H164.927L165.797 97.148L166.685 94.97H167.429ZM168.888 98.048C168.34 98.048 167.904 97.92 167.58 97.664L167.79 97.136C168.114 97.376 168.484 97.496 168.9 97.496C169.08 97.496 169.218 97.466 169.314 97.406C169.414 97.346 169.464 97.262 169.464 97.154C169.464 97.062 169.43 96.99 169.362 96.938C169.294 96.882 169.178 96.834 169.014 96.794L168.51 96.68C167.958 96.56 167.682 96.278 167.682 95.834C167.682 95.65 167.734 95.488 167.838 95.348C167.942 95.204 168.088 95.092 168.276 95.012C168.464 94.932 168.682 94.892 168.93 94.892C169.146 94.892 169.354 94.926 169.554 94.994C169.754 95.058 169.93 95.152 170.082 95.276L169.86 95.786C169.556 95.562 169.244 95.45 168.924 95.45C168.752 95.45 168.618 95.482 168.522 95.546C168.426 95.61 168.378 95.698 168.378 95.81C168.378 95.898 168.406 95.968 168.462 96.02C168.522 96.072 168.622 96.116 168.762 96.152L169.278 96.266C169.578 96.334 169.796 96.44 169.932 96.584C170.072 96.724 170.142 96.908 170.142 97.136C170.142 97.416 170.03 97.638 169.806 97.802C169.582 97.966 169.276 98.048 168.888 98.048ZM173.193 97.16V97.712C173.193 97.924 173.157 98.116 173.085 98.288C173.013 98.46 172.891 98.632 172.719 98.804L172.413 98.558C172.601 98.358 172.709 98.172 172.737 98H172.353V97.16H173.193ZM176.984 97.166H176.378V98H175.622V97.166H173.762V96.59L175.76 93.728H176.378V96.56H176.984V97.166ZM175.622 96.56V94.934L174.494 96.56H175.622ZM179.154 95.27C179.422 95.27 179.658 95.328 179.862 95.444C180.066 95.556 180.224 95.716 180.336 95.924C180.448 96.128 180.504 96.364 180.504 96.632C180.504 96.912 180.44 97.16 180.312 97.376C180.184 97.588 180 97.754 179.76 97.874C179.52 97.99 179.242 98.048 178.926 98.048C178.658 98.048 178.394 98.004 178.134 97.916C177.874 97.824 177.66 97.702 177.492 97.55L177.75 96.986C178.138 97.282 178.534 97.43 178.938 97.43C179.206 97.43 179.41 97.364 179.55 97.232C179.694 97.096 179.766 96.904 179.766 96.656C179.766 96.42 179.692 96.232 179.544 96.092C179.4 95.948 179.206 95.876 178.962 95.876C178.794 95.876 178.636 95.908 178.488 95.972C178.34 96.032 178.21 96.122 178.098 96.242H177.63V93.728H180.306V94.328H178.386V95.492C178.602 95.344 178.858 95.27 179.154 95.27ZM184.03 93.584V98H183.292V97.514C183.2 97.682 183.068 97.814 182.896 97.91C182.724 98.002 182.528 98.048 182.308 98.048C182.048 98.048 181.816 97.982 181.612 97.85C181.408 97.718 181.248 97.532 181.132 97.292C181.02 97.048 180.964 96.77 180.964 96.458C180.964 96.146 181.02 95.872 181.132 95.636C181.244 95.4 181.402 95.218 181.606 95.09C181.81 94.958 182.044 94.892 182.308 94.892C182.524 94.892 182.716 94.938 182.884 95.03C183.056 95.118 183.188 95.244 183.28 95.408V93.584H184.03ZM182.506 97.46C182.754 97.46 182.946 97.374 183.082 97.202C183.222 97.03 183.292 96.786 183.292 96.47C183.292 96.154 183.224 95.91 183.088 95.738C182.952 95.566 182.76 95.48 182.512 95.48C182.26 95.48 182.064 95.566 181.924 95.738C181.788 95.906 181.72 96.146 181.72 96.458C181.72 96.774 181.788 97.02 181.924 97.196C182.064 97.372 182.258 97.46 182.506 97.46ZM187.745 94.97V98H187.007V97.514C186.915 97.682 186.783 97.814 186.611 97.91C186.439 98.002 186.243 98.048 186.023 98.048C185.759 98.048 185.525 97.984 185.321 97.856C185.117 97.728 184.959 97.546 184.847 97.31C184.735 97.074 184.679 96.8 184.679 96.488C184.679 96.176 184.735 95.9 184.847 95.66C184.963 95.416 185.123 95.228 185.327 95.096C185.531 94.96 185.763 94.892 186.023 94.892C186.243 94.892 186.439 94.94 186.611 95.036C186.783 95.128 186.915 95.258 187.007 95.426V94.97H187.745ZM186.227 97.46C186.475 97.46 186.667 97.374 186.803 97.202C186.939 97.03 187.007 96.788 187.007 96.476C187.007 96.156 186.939 95.91 186.803 95.738C186.667 95.566 186.473 95.48 186.221 95.48C185.973 95.48 185.779 95.57 185.639 95.75C185.503 95.926 185.435 96.172 185.435 96.488C185.435 96.8 185.503 97.04 185.639 97.208C185.779 97.376 185.975 97.46 186.227 97.46ZM191.429 94.97L190.019 98.204C189.859 98.58 189.655 98.854 189.407 99.026C189.159 99.198 188.853 99.312 188.489 99.368L188.321 98.792C188.605 98.728 188.817 98.646 188.957 98.546C189.101 98.45 189.217 98.306 189.305 98.114L189.401 97.892L188.141 94.97H188.927L189.797 97.148L190.685 94.97H191.429ZM192.888 98.048C192.34 98.048 191.904 97.92 191.58 97.664L191.79 97.136C192.114 97.376 192.484 97.496 192.9 97.496C193.08 97.496 193.218 97.466 193.314 97.406C193.414 97.346 193.464 97.262 193.464 97.154C193.464 97.062 193.43 96.99 193.362 96.938C193.294 96.882 193.178 96.834 193.014 96.794L192.51 96.68C191.958 96.56 191.682 96.278 191.682 95.834C191.682 95.65 191.734 95.488 191.838 95.348C191.942 95.204 192.088 95.092 192.276 95.012C192.464 94.932 192.682 94.892 192.93 94.892C193.146 94.892 193.354 94.926 193.554 94.994C193.754 95.058 193.93 95.152 194.082 95.276L193.86 95.786C193.556 95.562 193.244 95.45 192.924 95.45C192.752 95.45 192.618 95.482 192.522 95.546C192.426 95.61 192.378 95.698 192.378 95.81C192.378 95.898 192.406 95.968 192.462 96.02C192.522 96.072 192.622 96.116 192.762 96.152L193.278 96.266C193.578 96.334 193.796 96.44 193.932 96.584C194.072 96.724 194.142 96.908 194.142 97.136C194.142 97.416 194.03 97.638 193.806 97.802C193.582 97.966 193.276 98.048 192.888 98.048Z" fill="white"/>
<path fill-rule="evenodd" clip-rule="evenodd" d="M274.494 105.547H270.652L267.771 94.1731C267.635 93.6499 267.344 93.1874 266.917 92.9694C265.851 92.4216 264.677 91.9856 263.396 91.7657V91.3278H269.584C270.439 91.3278 271.079 91.9856 271.186 92.7495L272.681 100.954L276.52 91.3278H280.255L274.494 105.547ZM282.391 105.547H278.763L281.75 91.3279H285.378L282.391 105.547ZM290.072 95.267C290.179 94.5011 290.82 94.0633 291.567 94.0633C292.741 93.9533 294.021 94.1732 295.088 94.7191L295.729 91.6578C294.661 91.2199 293.487 91 292.421 91C288.9 91 286.337 92.9695 286.337 95.7029C286.337 97.7824 288.152 98.8743 289.433 99.532C290.82 100.188 291.353 100.626 291.247 101.282C291.247 102.265 290.179 102.703 289.113 102.703C287.832 102.703 286.551 102.375 285.378 101.828L284.738 104.891C286.019 105.437 287.405 105.657 288.686 105.657C292.635 105.765 295.088 103.797 295.088 100.844C295.088 97.1246 290.072 96.9066 290.072 95.267ZM307.786 105.547L304.905 91.3279H301.811C301.17 91.3279 300.529 91.7658 300.316 92.4216L294.981 105.547H298.716L299.462 103.469H304.051L304.478 105.547H307.786ZM302.345 95.157L303.41 100.516H300.423L302.345 95.157Z" fill="#28356A" fill-opacity="0.2"/>
</svg>
