<svg width="102" height="73" viewBox="0 0 102 73" fill="none" xmlns="http://www.w3.org/2000/svg">
<path d="M20 7.10261C38.5 7.10261 34 61.1026 38.5 43.6026C43 26.1026 38.5 10.6026 43 14.6026C47.5 18.6026 61 81.6026 63 65.6026C65 49.6026 61.5 -14.8963 55.5 11.1026C49.5 37.1016 74.3937 38.529 86.5 56.1026" stroke="#E3E49B" stroke-width="3"/>
<path d="M3.61065 15.8697C3.22465 16.0686 2.78665 15.7199 2.86465 15.2748L3.69465 10.5216L0.171653 7.14919C-0.157347 6.83365 0.0136534 6.25685 0.454654 6.19454L5.35265 5.49514L7.53665 1.14696C7.73365 0.75505 8.26665 0.75505 8.46365 1.14696L10.6477 5.49514L15.5457 6.19454C15.9867 6.25685 16.1577 6.83365 15.8277 7.14919L12.3057 10.5216L13.1357 15.2748C13.2137 15.7199 12.7757 16.0686 12.3897 15.8697L7.99865 13.6026L3.61065 15.8697Z" fill="#8886FF"/>
<path d="M89.6107 72.1438C89.2247 72.3427 88.7867 71.994 88.8647 71.5489L89.6947 66.7957L86.1717 63.4233C85.8427 63.1077 86.0137 62.5309 86.4547 62.4686L91.3527 61.7692L93.5367 57.421C93.7337 57.0291 94.2667 57.0291 94.4637 57.421L96.6477 61.7692L101.546 62.4686C101.987 62.5309 102.158 63.1077 101.828 63.4233L98.3057 66.7957L99.1357 71.5489C99.2137 71.994 98.7757 72.3427 98.3897 72.1438L93.9987 69.8767L89.6097 72.1438H89.6107Z" fill="white"/>
</svg>
