<svg width="28" height="24" viewBox="0 0 28 24" fill="none" xmlns="http://www.w3.org/2000/svg">
<path d="M28 2.8509C26.9703 3.31954 25.8498 3.65682 24.6956 3.78818C25.8939 3.03706 26.7913 1.85043 27.2193 0.450902C26.0949 1.15666 24.863 1.65155 23.5784 1.91362C23.0415 1.30804 22.3922 0.825599 21.6708 0.496372C20.9495 0.167145 20.1716 -0.00181698 19.3857 1.47351e-05C16.2057 1.47351e-05 13.6484 2.71954 13.6484 6.05682C13.6484 6.52545 13.7022 6.99409 13.7897 7.44498C9.02824 7.18226 4.78164 4.78226 1.95842 1.10771C1.444 2.03474 1.17442 3.09028 1.17774 4.16451C1.17774 6.26628 2.1906 8.11954 3.73513 9.20948C2.82492 9.17166 1.93602 8.90769 1.14073 8.43906V8.51362C1.14073 11.4568 3.11261 13.8959 5.74066 14.4568C5.24721 14.592 4.7396 14.6612 4.22978 14.6627C3.85627 14.6627 3.50294 14.6237 3.14626 14.5704C3.87309 16.9704 5.98966 18.7136 8.51003 18.7704C6.53816 20.4 4.06826 21.3586 1.38637 21.3586C0.90518 21.3586 0.461002 21.3408 0 21.284C2.54393 23.0059 5.56231 24 8.81288 24C19.3655 24 25.1398 14.7763 25.1398 6.77043C25.1398 6.5077 25.1398 6.24498 25.1229 5.98226C26.2401 5.11954 27.2193 4.0509 28 2.8509Z" fill="white"/>
</svg>
